<?xml version="1.0" encoding="utf-8"?>
<!-- Generated by IcoMoon.io -->
<!DOCTYPE svg PUBLIC "-//W3C//DTD SVG 1.1//EN" "http://www.w3.org/Graphics/SVG/1.1/DTD/svg11.dtd">
<svg version="1.1" xmlns="http://www.w3.org/2000/svg" xmlns:xlink="http://www.w3.org/1999/xlink" width="64" height="64" viewBox="0 0 64 64">
<path d="M0 64h64v-64h-64v64z" fill="rgb(91, 67, 134)"></path>
<path d="M13.675 17.725h0.898c0.303 0 0.517-0.049 0.641-0.146s0.186-0.229 0.186-0.395c0-0.153-0.062-0.276-0.185-0.369s-0.338-0.139-0.646-0.139h-0.894v1.050zM13.675 15.625h0.765c0.275 0 0.466-0.039 0.573-0.118s0.161-0.193 0.161-0.341c0-0.138-0.054-0.246-0.161-0.324s-0.294-0.117-0.562-0.117h-0.777v0.9zM12.025 13.6h3.163c0.527 0 0.932 0.125 1.214 0.374s0.423 0.558 0.423 0.926c0 0.308-0.1 0.573-0.301 0.793-0.134 0.148-0.329 0.264-0.587 0.349 0.382 0.096 0.663 0.261 0.843 0.495s0.27 0.528 0.27 0.882c0 0.288-0.065 0.547-0.196 0.777s-0.311 0.412-0.539 0.546c-0.141 0.084-0.353 0.144-0.638 0.182-0.378 0.051-0.629 0.076-0.752 0.076h-2.9v-5.4z" fill="rgb(255, 255, 255)"></path>
<path d="M19.15 17.048c0 0.358 0.068 0.623 0.203 0.795s0.306 0.257 0.512 0.257c0.207 0 0.377-0.084 0.51-0.253s0.2-0.44 0.2-0.814c0-0.348-0.067-0.607-0.202-0.777s-0.3-0.255-0.498-0.255c-0.21 0-0.383 0.086-0.52 0.259s-0.205 0.435-0.205 0.788zM17.65 17.061c0-0.59 0.198-1.077 0.595-1.461s0.932-0.575 1.607-0.575c0.771 0 1.354 0.225 1.748 0.675 0.316 0.362 0.475 0.809 0.475 1.339 0 0.596-0.197 1.083-0.59 1.464s-0.936 0.571-1.63 0.571c-0.619 0-1.12-0.158-1.502-0.475-0.469-0.391-0.703-0.904-0.703-1.54z" fill="rgb(255, 255, 255)"></path>
<path d="M24.175 17.048c0 0.358 0.068 0.623 0.203 0.795s0.306 0.257 0.512 0.257c0.207 0 0.377-0.084 0.51-0.253s0.2-0.44 0.2-0.814c0-0.348-0.067-0.607-0.201-0.777s-0.3-0.255-0.498-0.255c-0.21 0-0.384 0.086-0.52 0.259s-0.205 0.435-0.205 0.788zM22.675 17.061c0-0.59 0.198-1.077 0.595-1.461s0.932-0.575 1.607-0.575c0.771 0 1.354 0.225 1.748 0.675 0.317 0.362 0.475 0.809 0.475 1.339 0 0.596-0.197 1.083-0.59 1.464s-0.936 0.571-1.63 0.571c-0.62 0-1.12-0.158-1.502-0.475-0.468-0.391-0.703-0.904-0.703-1.54z" fill="rgb(255, 255, 255)"></path>
<path d="M29.65 13.6v1.5h0.825v1.125h-0.825v1.411c0 0.169 0.016 0.281 0.049 0.336 0.050 0.085 0.138 0.128 0.264 0.128 0.113 0 0.271-0.032 0.475-0.097l0.112 0.961c-0.373 0.074-0.722 0.111-1.046 0.111-0.376 0-0.653-0.047-0.831-0.141s-0.31-0.236-0.395-0.428c-0.085-0.192-0.128-0.502-0.128-0.93v-1.351h-0.525v-1.125h0.525v-0.724l1.5-0.776z" fill="rgb(255, 255, 255)"></path>
<path d="M30.925 17.95l1.5-0.15c0.053 0.161 0.128 0.276 0.224 0.346s0.224 0.104 0.383 0.104c0.175 0 0.311-0.042 0.407-0.125 0.074-0.062 0.111-0.139 0.111-0.231 0-0.105-0.031-0.185-0.092-0.242-0.044-0.041-0.239-0.091-0.586-0.15-0.519-0.088-0.879-0.171-1.081-0.248s-0.372-0.207-0.51-0.39c-0.138-0.183-0.207-0.391-0.207-0.625 0-0.256 0.074-0.477 0.223-0.662s0.353-0.324 0.613-0.415 0.609-0.137 1.048-0.137c0.462 0 0.804 0.036 1.024 0.107s0.404 0.183 0.551 0.333c0.147 0.15 0.269 0.354 0.367 0.61l-1.5 0.15c-0.033-0.119-0.087-0.207-0.164-0.262-0.105-0.075-0.231-0.113-0.379-0.113-0.151 0-0.261 0.029-0.329 0.087s-0.103 0.129-0.103 0.213c0 0.092 0.047 0.162 0.139 0.21s0.302 0.090 0.629 0.129c0.497 0.055 0.866 0.131 1.108 0.23s0.427 0.239 0.555 0.422c0.129 0.183 0.193 0.384 0.193 0.603 0 0.221-0.068 0.436-0.203 0.646s-0.348 0.376-0.639 0.5c-0.291 0.124-0.687 0.186-1.189 0.186-0.71 0-1.215-0.098-1.515-0.293s-0.494-0.473-0.579-0.832z" fill="rgb(255, 255, 255)"></path>
<path d="M37.525 13.6v1.5h0.825v1.125h-0.825v1.411c0 0.169 0.016 0.281 0.049 0.336 0.050 0.085 0.138 0.128 0.264 0.128 0.113 0 0.272-0.032 0.475-0.097l0.112 0.961c-0.374 0.074-0.722 0.111-1.047 0.111-0.376 0-0.653-0.047-0.831-0.141s-0.31-0.236-0.395-0.428c-0.086-0.192-0.128-0.502-0.128-0.93v-1.351h-0.525v-1.125h0.525v-0.724l1.5-0.776z" fill="rgb(255, 255, 255)"></path>
<path d="M39.025 15.1h1.397v0.67c0.135-0.284 0.275-0.479 0.419-0.585s0.322-0.16 0.533-0.16c0.221 0 0.463 0.066 0.726 0.198l-0.465 1.11c-0.177-0.072-0.318-0.108-0.421-0.108-0.196 0-0.349 0.079-0.457 0.238-0.155 0.223-0.232 0.641-0.232 1.254v1.283h-1.5v-3.9z" fill="rgb(255, 255, 255)"></path>
<path d="M45.138 17.2c-0.195 0.070-0.398 0.131-0.609 0.184-0.288 0.076-0.471 0.152-0.547 0.226-0.079 0.076-0.118 0.164-0.118 0.261 0 0.111 0.039 0.202 0.117 0.273s0.192 0.106 0.343 0.106c0.158 0 0.306-0.038 0.441-0.115s0.232-0.17 0.289-0.28c0.057-0.11 0.085-0.253 0.085-0.429v-0.226zM44.013 16.45l-1.5-0.15c0.053-0.265 0.13-0.474 0.23-0.626s0.244-0.284 0.433-0.396c0.135-0.081 0.321-0.143 0.557-0.187s0.492-0.066 0.767-0.066c0.442 0 0.796 0.025 1.064 0.075s0.491 0.154 0.669 0.313c0.126 0.111 0.225 0.266 0.297 0.467s0.108 0.393 0.108 0.576v1.717c0 0.183 0.012 0.326 0.035 0.43s0.074 0.236 0.152 0.397h-1.434c-0.058-0.102-0.096-0.179-0.113-0.232s-0.035-0.137-0.052-0.251c-0.191 0.186-0.382 0.319-0.571 0.398-0.258 0.106-0.559 0.159-0.901 0.159-0.455 0-0.8-0.105-1.036-0.315s-0.354-0.469-0.354-0.777c0-0.289 0.085-0.527 0.254-0.712s0.483-0.325 0.94-0.416c0.547-0.109 0.902-0.186 1.064-0.23s0.335-0.102 0.517-0.174c0-0.166-0.033-0.283-0.099-0.35s-0.182-0.1-0.347-0.1c-0.213 0-0.372 0.039-0.478 0.115-0.083 0.059-0.15 0.171-0.201 0.335z" fill="rgb(255, 255, 255)"></path>
<path d="M49.027 17.072c0 0.348 0.064 0.607 0.192 0.775s0.29 0.252 0.486 0.252c0.173 0 0.317-0.081 0.433-0.242s0.174-0.436 0.174-0.822c0-0.356-0.061-0.618-0.182-0.785s-0.269-0.251-0.443-0.251c-0.189 0-0.346 0.084-0.472 0.253s-0.189 0.442-0.189 0.82zM47.538 20.5v-5.4h1.391v0.513c0.193-0.215 0.37-0.36 0.531-0.436 0.217-0.102 0.457-0.152 0.721-0.152 0.519 0 0.922 0.198 1.206 0.595s0.427 0.886 0.427 1.47c0 0.645-0.155 1.137-0.465 1.476s-0.702 0.509-1.176 0.509c-0.229 0-0.438-0.034-0.627-0.102s-0.358-0.17-0.508-0.305v1.833h-1.5z" fill="rgb(255, 255, 255)"></path>
<path d="M64 45.616c-4.783-4.941-24.625-21.616-24.625-21.616l-18.5-1.375v27.375l16.25 14h26.875v-18.384z" fill="rgba(1, 1, 1, 0.190999999642372)"></path>
<path d="M26.007 38.195v7.234h5.333c2.078 0 3.396-0.056 3.954-0.167 0.858-0.147 1.557-0.507 2.095-1.080s0.808-1.34 0.808-2.299c0-0.809-0.208-1.497-0.623-2.064s-1.016-0.98-1.801-1.237c-0.785-0.258-2.49-0.387-5.114-0.387h-4.652zM26.007 27.154v6.472h3.758c2.235 0 3.625-0.032 4.167-0.095 0.981-0.115 1.753-0.449 2.315-1.003s0.843-1.282 0.843-2.186c0-0.865-0.242-1.568-0.727-2.109s-1.205-0.87-2.159-0.985c-0.569-0.064-2.203-0.095-4.9-0.095h-3.296zM20.836 22.586h10.863c2.147 0 3.75 0.091 4.808 0.274s2.004 0.563 2.837 1.142c0.833 0.579 1.528 1.352 2.084 2.317s0.834 2.047 0.834 3.245c0 1.297-0.321 2.487-0.964 3.569s-1.514 1.895-2.614 2.439c1.504 0.48 2.662 1.301 3.472 2.463s1.215 2.526 1.215 4.093c0 1.233-0.285 2.434-0.854 3.602s-1.347 2.1-2.332 2.796c-0.985 0.696-2.199 1.125-3.642 1.288-0.904 0.099-3.088 0.161-6.551 0.184h-9.154v-27.411z" fill="rgb(255, 255, 255)"></path>
</svg>
