<?xml version="1.0" encoding="utf-8"?>
<!-- Generated by IcoMoon.io -->
<!DOCTYPE svg PUBLIC "-//W3C//DTD SVG 1.1//EN" "http://www.w3.org/Graphics/SVG/1.1/DTD/svg11.dtd">
<svg version="1.1" xmlns="http://www.w3.org/2000/svg" xmlns:xlink="http://www.w3.org/1999/xlink" width="64" height="64" viewBox="0 0 64 64">
<path d="M0 64h64v-64h-64v64z" fill="rgb(16, 115, 187)"></path>
<path d="M27.298 16.93l1.596 0.495c-0.11 0.465-0.283 0.853-0.52 1.165s-0.53 0.547-0.88 0.706c-0.35 0.159-0.796 0.238-1.338 0.238-0.657 0-1.194-0.095-1.61-0.285s-0.776-0.524-1.078-1.002c-0.302-0.478-0.453-1.090-0.453-1.835 0-0.994 0.265-1.758 0.794-2.292s1.278-0.801 2.247-0.801c0.758 0 1.354 0.156 1.788 0.468s0.756 0.79 0.966 1.436l-1.68 0.363c-0.057-0.182-0.116-0.315-0.178-0.399-0.103-0.142-0.229-0.251-0.378-0.327s-0.316-0.114-0.499-0.114c-0.417 0-0.737 0.166-0.959 0.497-0.168 0.246-0.252 0.632-0.252 1.159 0 0.652 0.104 1.098 0.314 1.34s0.502 0.363 0.88 0.363c0.367 0 0.645-0.1 0.832-0.301s0.324-0.492 0.409-0.875z" fill="rgb(255, 255, 255)"></path>
<path d="M29.397 17.459l1.848-0.109c0.036 0.284 0.109 0.499 0.219 0.647 0.179 0.24 0.436 0.361 0.769 0.361 0.249 0 0.44-0.063 0.574-0.188s0.201-0.271 0.201-0.436c0-0.157-0.059-0.297-0.178-0.421s-0.427-0.242-0.923-0.352c-0.811-0.185-1.389-0.428-1.735-0.731-0.349-0.303-0.523-0.688-0.523-1.156 0-0.309 0.090-0.6 0.269-0.874s0.449-0.489 0.809-0.646c0.36-0.156 0.854-0.235 1.481-0.235 0.769 0 1.355 0.145 1.759 0.435s0.644 0.752 0.721 1.385l-1.848 0.111c-0.040-0.293-0.124-0.506-0.252-0.64s-0.305-0.2-0.531-0.2c-0.186 0-0.325 0.046-0.419 0.139s-0.141 0.204-0.141 0.337c0 0.096 0.022 0.183 0.066 0.261 0.042 0.080 0.226 0.154 0.553 0.223 0.809 0.176 1.388 0.354 1.738 0.534s0.604 0.403 0.764 0.669c0.159 0.267 0.239 0.564 0.239 0.894 0 0.387-0.107 0.743-0.32 1.070s-0.512 0.575-0.895 0.744c-0.383 0.169-0.866 0.253-1.449 0.253-1.023 0-1.732-0.195-2.126-0.586s-0.617-0.887-0.669-1.489z" fill="rgb(255, 255, 255)"></path>
<path d="M35.444 17.459l1.847-0.109c0.036 0.284 0.109 0.499 0.219 0.647 0.179 0.24 0.436 0.361 0.769 0.361 0.248 0 0.44-0.063 0.574-0.188s0.202-0.271 0.202-0.436c0-0.157-0.060-0.297-0.179-0.421-0.12-0.124-0.428-0.242-0.922-0.352-0.811-0.185-1.389-0.428-1.735-0.731-0.349-0.303-0.523-0.688-0.523-1.156 0-0.309 0.090-0.6 0.269-0.874s0.449-0.489 0.809-0.646c0.36-0.156 0.853-0.235 1.481-0.235 0.769 0 1.355 0.145 1.759 0.435s0.644 0.752 0.721 1.385l-1.848 0.111c-0.040-0.293-0.124-0.506-0.253-0.64s-0.305-0.2-0.531-0.2c-0.185 0-0.325 0.046-0.419 0.139s-0.141 0.204-0.141 0.337c0 0.096 0.022 0.183 0.065 0.261 0.042 0.080 0.227 0.154 0.554 0.223 0.808 0.176 1.387 0.354 1.737 0.534s0.604 0.403 0.764 0.669c0.159 0.267 0.239 0.564 0.239 0.894 0 0.387-0.107 0.743-0.32 1.070s-0.512 0.575-0.895 0.744c-0.383 0.169-0.866 0.253-1.449 0.253-1.023 0-1.732-0.195-2.126-0.586s-0.617-0.887-0.668-1.489z" fill="rgb(255, 255, 255)"></path>
<path d="M64 45.617c-4.783-4.941-17.25-23.866-17.25-23.866h-25.375l-4.375 22.25 20.125 20h26.875v-18.383z" fill="rgba(1, 1, 1, 0.190999999642372)"></path>
<path d="M21.433 21.75l-0.999 4.993h20.324l-0.634 3.225h-20.338l-0.985 4.993h20.324l-1.133 5.695-8.192 2.712-7.098-2.712 0.486-2.47h-4.993l-1.188 5.992 11.741 4.494 13.536-4.494 1.795-9.015 0.364-1.808 2.308-11.606h-25.317z" fill="rgb(255, 255, 255)"></path>
</svg>
