<?xml version="1.0" encoding="utf-8"?>
<!-- Generated by IcoMoon.io -->
<!DOCTYPE svg PUBLIC "-//W3C//DTD SVG 1.1//EN" "http://www.w3.org/Graphics/SVG/1.1/DTD/svg11.dtd">
<svg version="1.1" xmlns="http://www.w3.org/2000/svg" xmlns:xlink="http://www.w3.org/1999/xlink" width="64" height="64" viewBox="0 0 64 64">
<path d="M0 64h64v-64h-64v64z" fill="rgb(62, 64, 65)"></path>
<path d="M40.875 20l-18.375 0.25-2.75 13 15.75 30.75h28.5v-9.625l-23.125-34.375z" fill="rgba(1, 1, 1, 0.101999998092651)"></path>
<path d="M36.975 28.274c-0.009 0.044-0.021 0.099-0.028 0.135l-0.329 1.538 0.357-1.673z" fill="rgb(93, 163, 194)"></path>
<path d="M27.128 29.304l-0.181 0.643 0.181-0.642v-0z" fill="rgb(93, 163, 194)"></path>
<path d="M40.523 15.625c0.488 1.108 0.804 2.948 0.332 4.295 1.929 1.646 2.592 5.649 1.661 8.92 2.748 0.21 6.023-0.101 8.136 0.743-1.976-0.254-4.674-0.752-7.222-0.579-0.483 0.033-1.198-0.018-1.163 0.661 2.95 0.232 5.881 0.484 8.303 1.239-2.402-0.392-5.318-0.99-8.303-1.073-1.233 2.433-3.715 3.629-7.14 3.881 0.368 0.801 1.073 1.106 1.246 2.395 0.257 1.925-0.402 4.746 0.248 6.029 0.312 0.615 0.82 0.631 1.163 1.157-0.839 0.993-2.919-0.111-3.156-1.157-0.406-1.791 0.618-4.567-0.498-5.781 0.079 1.953-0.462 4.697 0.083 6.442 0.215 0.686 0.835 0.951 0.664 1.57-3.899 0.396-2.27-5.047-2.907-8.259-0.588 0.042-0.33 0.881-0.331 1.239-0.017 3.138 0.642 7.44-2.74 7.020-0.099-0.659 0.454-0.883 0.664-1.486 0.617-1.765-0.116-4.395 0.168-6.526-1.291 0.973 0.135 4.37-0.664 6.111-0.461 1.002-1.945 1.439-3.072 0.991 0.146-0.747 0.918-0.626 1.244-1.321 0.457-0.97 0.003-2.366 0.167-3.799-2.389 0.477-4.242-0.069-5.149-1.57-0.405-0.673-0.506-1.468-0.997-2.065-0.488-0.597-1.267-0.677-1.494-1.486 2.959-0.712 3.072 3.044 5.729 3.138 0.814 0.029 1.238-0.235 1.992-0.412 0.211-0.948 0.663-1.654 1.328-2.149-3.306-0.453-6.036-1.482-7.306-3.963-3.006 0.148-5.756 0.549-8.303 1.155 2.312-0.84 5.164-1.141 8.22-1.239-0.18-1.082-1.759-0.785-2.74-0.743-1.822 0.080-4.115 0.307-5.563 0.579 2.099-0.749 5.044-0.655 7.888-0.661-0.87-2.727-0.569-7.059 1.328-8.672-0.538-1.355-0.371-3.57 0.332-4.625 2.117 0.095 3.402 1.019 4.732 1.9 1.65-0.47 3.385-0.703 5.645-0.579 0.951 0.053 1.94 0.48 2.656 0.412 0.703-0.066 1.477-0.854 2.159-1.155 0.889-0.392 1.641-0.542 2.657-0.579z" fill="rgb(255, 255, 255)"></path>
</svg>
