<?xml version="1.0" encoding="utf-8"?>
<!-- Generated by IcoMoon.io -->
<!DOCTYPE svg PUBLIC "-//W3C//DTD SVG 1.1//EN" "http://www.w3.org/Graphics/SVG/1.1/DTD/svg11.dtd">
<svg version="1.1" xmlns="http://www.w3.org/2000/svg" xmlns:xlink="http://www.w3.org/1999/xlink" width="64" height="64" viewBox="0 0 64 64">
<path d="M32.85 36.83c-1.794-1.268-5.218-4.352-5.218-6.166 0-2.124 0.606-3.172 3.804-5.67 3.276-2.562 5.598-6.76 5.598-10.952 0-4.984-2.224-8.042-6.392-12.042h6.288l4.436-2c0 0-14.868 0-19.826 0-8.89 0-17.252 6.724-17.252 14.522 0 7.972 6.058 14.402 15.102 14.402 0.628 0 1.238-0.016 1.838-0.056-0.588 1.12-1.006 2.384-1.006 3.698 0 2.216 1.192 4.012 2.696 5.48-1.134 0-2.236 0.032-3.434 0.032-11.014-0.002-19.484 7.008-19.484 14.28 0 7.158 9.29 11.642 20.296 11.642 12.552 0 19.482-7.124 19.482-14.284 0.002-5.742-1.694-9.178-6.928-12.886zM22.258 26.896c-5.11-0.152-9.962-5.714-10.844-12.418-0.88-6.71 2.544-11.844 7.648-11.692 5.108 0.156 9.962 5.536 10.846 12.244 0.882 6.71-2.546 12.018-7.65 11.866zM20.256 60.83c-7.61 0-13.106-4.814-13.106-10.602 0-5.668 6.816-10.39 14.428-10.308 1.776 0.020 3.43 0.304 4.93 0.79 4.132 2.876 7.096 4.5 7.936 7.77 0.152 0.664 0.242 1.35 0.242 2.046 0 5.784-3.73 10.304-14.43 10.304z" fill="rgb(68, 68, 68)"></path>
<path d="M54 28v-10h-4v10h-10v4h10v10h4v-10h10v-4z" fill="rgb(68, 68, 68)"></path>
</svg>
