<?xml version="1.0" encoding="utf-8"?>
<!-- Generated by IcoMoon.io -->
<!DOCTYPE svg PUBLIC "-//W3C//DTD SVG 1.1//EN" "http://www.w3.org/Graphics/SVG/1.1/DTD/svg11.dtd">
<svg version="1.1" xmlns="http://www.w3.org/2000/svg" xmlns:xlink="http://www.w3.org/1999/xlink" width="64" height="64" viewBox="0 0 64 64">
<path d="M0 64h64v-64h-64v64z" fill="rgb(228, 78, 37)"></path>
<path d="M64 45.581c-4.822-4.95-20.039-23.663-20.039-23.663h-24.576l2.224 24.341 17.814 17.741h24.576v-18.419z" fill="rgba(0, 0, 0, 0.100000001490116)"></path>
<path d="M20.165 13.799h1.668v1.85h1.895v-1.85h1.667v5.328h-1.667v-2.146h-1.895v2.146h-1.668v-5.328z" fill="rgb(255, 255, 255)"></path>
<path d="M26.076 13.799h5.153v1.258h-1.743v4.070h-1.667v-4.070h-1.743v-1.258z" fill="rgb(255, 255, 255)"></path>
<path d="M31.912 13.799h2.198l0.837 3.254 0.829-3.254h2.199v5.328h-1.364v-4.040l-1.029 4.040h-1.266l-1.039-4.040v4.040h-1.364v-5.328z" fill="rgb(255, 255, 255)"></path>
<path d="M39.035 13.799h1.667v3.996h2.653v1.332h-4.32v-5.328z" fill="rgb(255, 255, 255)"></path>
<path d="M31.657 36.367h-10.951l-1.32-14.449h24.512l-0.117 1.282-0.223 2.422-0.098 1.074h-18.726l0.447 4.893h17.834l-0.12 1.283-1.15 12.579-0.074 0.807-10.038 2.717-10.024-2.717-0.685-7.502h4.912l0.349 3.811 5.454 1.435 5.458-1.438 0.568-6.197h-6.009z" fill="rgb(255, 255, 255)"></path>
</svg>
