<?xml version="1.0" encoding="utf-8"?>
<!-- Generated by IcoMoon.io -->
<!DOCTYPE svg PUBLIC "-//W3C//DTD SVG 1.1//EN" "http://www.w3.org/Graphics/SVG/1.1/DTD/svg11.dtd">
<svg version="1.1" xmlns="http://www.w3.org/2000/svg" xmlns:xlink="http://www.w3.org/1999/xlink" width="64" height="64" viewBox="0 0 64 64">
<path d="M0 64h64v-64h-64v64z" fill="rgb(103, 169, 105)"></path>
<path d="M11.725 13.725h1.65v2.925c0 0.614-0.055 1.081-0.164 1.401s-0.329 0.592-0.66 0.814c-0.331 0.223-0.755 0.334-1.271 0.334-0.546 0-0.969-0.073-1.269-0.218s-0.532-0.359-0.696-0.639-0.26-0.627-0.29-1.039l1.65-0.204c0.002 0.224 0.023 0.389 0.061 0.498s0.103 0.195 0.194 0.262c0.063 0.044 0.151 0.066 0.266 0.066 0.182 0 0.316-0.069 0.401-0.206s0.128-0.369 0.128-0.695v-3.299z" fill="rgb(255, 255, 255)"></path>
<path d="M16.788 17.325c-0.195 0.070-0.398 0.131-0.61 0.184-0.288 0.076-0.471 0.152-0.547 0.226-0.079 0.076-0.118 0.164-0.118 0.261 0 0.111 0.039 0.202 0.117 0.273s0.192 0.106 0.343 0.106c0.159 0 0.306-0.038 0.441-0.115s0.232-0.17 0.289-0.28c0.057-0.11 0.086-0.253 0.086-0.429v-0.226zM15.663 16.575l-1.5-0.15c0.053-0.265 0.13-0.474 0.23-0.626s0.244-0.284 0.432-0.396c0.135-0.081 0.321-0.143 0.557-0.187s0.492-0.066 0.767-0.066c0.441 0 0.796 0.025 1.064 0.075s0.491 0.154 0.669 0.313c0.126 0.111 0.225 0.266 0.297 0.467s0.108 0.393 0.108 0.576v1.717c0 0.183 0.012 0.326 0.035 0.43s0.074 0.236 0.152 0.397h-1.434c-0.058-0.102-0.096-0.179-0.113-0.232s-0.035-0.137-0.052-0.251c-0.191 0.186-0.382 0.319-0.571 0.398-0.259 0.106-0.559 0.159-0.901 0.159-0.455 0-0.8-0.105-1.036-0.315s-0.354-0.469-0.354-0.777c0-0.289 0.085-0.527 0.254-0.712s0.483-0.325 0.94-0.416c0.547-0.109 0.902-0.186 1.064-0.23s0.335-0.102 0.517-0.174c0-0.166-0.033-0.283-0.099-0.35s-0.182-0.1-0.347-0.1c-0.213 0-0.372 0.038-0.478 0.115-0.083 0.059-0.149 0.171-0.2 0.335z" fill="rgb(255, 255, 255)"></path>
<path d="M18.55 15.225h1.535l0.752 2.472 0.748-2.472h1.54l-1.654 3.9h-1.317l-1.604-3.9z" fill="rgb(255, 255, 255)"></path>
<path d="M26.2 17.325c-0.195 0.070-0.398 0.131-0.61 0.184-0.288 0.076-0.471 0.152-0.547 0.226-0.079 0.076-0.119 0.164-0.119 0.261 0 0.111 0.039 0.202 0.116 0.273s0.192 0.106 0.343 0.106c0.159 0 0.306-0.038 0.441-0.115s0.232-0.17 0.289-0.28c0.057-0.11 0.085-0.253 0.085-0.429v-0.226zM25.075 16.575l-1.5-0.15c0.053-0.265 0.13-0.474 0.23-0.626s0.244-0.284 0.432-0.396c0.135-0.081 0.321-0.143 0.557-0.187s0.492-0.066 0.767-0.066c0.441 0 0.796 0.025 1.064 0.075s0.491 0.154 0.669 0.313c0.126 0.111 0.225 0.266 0.297 0.467s0.108 0.393 0.108 0.576v1.717c0 0.183 0.012 0.326 0.035 0.43s0.074 0.236 0.152 0.397h-1.435c-0.058-0.102-0.096-0.179-0.113-0.232s-0.035-0.137-0.052-0.251c-0.191 0.186-0.382 0.319-0.571 0.398-0.259 0.106-0.559 0.159-0.901 0.159-0.455 0-0.8-0.105-1.036-0.315s-0.354-0.469-0.354-0.777c0-0.289 0.085-0.527 0.255-0.712s0.483-0.325 0.94-0.416c0.547-0.109 0.902-0.186 1.064-0.23s0.335-0.102 0.517-0.174c0-0.166-0.033-0.283-0.099-0.35s-0.182-0.1-0.347-0.1c-0.212 0-0.372 0.038-0.478 0.115-0.083 0.059-0.15 0.171-0.2 0.335z" fill="rgb(255, 255, 255)"></path>
<path d="M30.85 17.347l1.65-0.097c0.032 0.253 0.097 0.446 0.196 0.578 0.16 0.215 0.389 0.323 0.687 0.323 0.222 0 0.393-0.056 0.513-0.168s0.18-0.242 0.18-0.39c0-0.14-0.053-0.265-0.159-0.376-0.107-0.111-0.382-0.216-0.824-0.314-0.724-0.165-1.241-0.383-1.549-0.653-0.311-0.271-0.467-0.614-0.467-1.033 0-0.276 0.080-0.536 0.24-0.78s0.401-0.437 0.722-0.576c0.322-0.14 0.762-0.21 1.323-0.21 0.687 0 1.21 0.129 1.571 0.388s0.575 0.671 0.644 1.237l-1.65 0.1c-0.036-0.262-0.111-0.452-0.226-0.571s-0.272-0.179-0.474-0.179c-0.166 0-0.291 0.041-0.375 0.124s-0.126 0.183-0.126 0.3c0 0.086 0.019 0.164 0.058 0.233 0.038 0.071 0.202 0.137 0.495 0.199 0.722 0.157 1.239 0.316 1.552 0.476s0.54 0.36 0.682 0.598c0.142 0.238 0.214 0.504 0.214 0.799 0 0.345-0.095 0.664-0.286 0.956s-0.457 0.513-0.799 0.664c-0.342 0.151-0.773 0.226-1.294 0.226-0.914 0-1.547-0.174-1.899-0.523s-0.551-0.792-0.597-1.33z" fill="rgb(255, 255, 255)"></path>
<path d="M39.325 17.625l1.5 0.15c-0.078 0.291-0.206 0.542-0.385 0.754s-0.406 0.377-0.683 0.495c-0.277 0.117-0.629 0.176-1.058 0.176-0.412 0-0.756-0.038-1.031-0.115s-0.511-0.201-0.709-0.372c-0.197-0.171-0.352-0.372-0.465-0.604s-0.169-0.537-0.169-0.918c0-0.398 0.069-0.73 0.205-0.995 0.1-0.195 0.237-0.369 0.411-0.523s0.352-0.269 0.535-0.345c0.291-0.119 0.664-0.178 1.118-0.178 0.636 0 1.121 0.108 1.455 0.325s0.567 0.533 0.702 0.95l-1.5 0.225c-0.041-0.174-0.115-0.305-0.222-0.393s-0.252-0.133-0.434-0.133c-0.229 0-0.414 0.091-0.556 0.273s-0.213 0.456-0.213 0.824c0 0.328 0.071 0.577 0.213 0.748s0.323 0.255 0.544 0.255c0.183 0 0.338-0.049 0.463-0.147s0.219-0.249 0.28-0.453z" fill="rgb(255, 255, 255)"></path>
<path d="M41.5 15.225h1.397v0.67c0.135-0.284 0.275-0.479 0.419-0.585s0.321-0.16 0.533-0.16c0.221 0 0.464 0.066 0.727 0.198l-0.465 1.11c-0.177-0.072-0.318-0.108-0.421-0.108-0.196 0-0.349 0.079-0.457 0.238-0.154 0.223-0.232 0.641-0.232 1.254v1.283h-1.5v-3.9z" fill="rgb(255, 255, 255)"></path>
<path d="M44.875 15.225h1.5v3.9h-1.5v-3.9zM44.875 13.725h1.5v1.050h-1.5v-1.050z" fill="rgb(255, 255, 255)"></path>
<path d="M48.764 17.197c0 0.348 0.064 0.607 0.192 0.775s0.29 0.252 0.486 0.252c0.172 0 0.317-0.081 0.433-0.242s0.174-0.436 0.174-0.822c0-0.356-0.060-0.618-0.182-0.785s-0.269-0.251-0.443-0.251c-0.189 0-0.346 0.084-0.472 0.253s-0.189 0.442-0.189 0.82zM47.275 20.625v-5.4h1.391v0.513c0.193-0.215 0.37-0.36 0.531-0.436 0.217-0.102 0.457-0.152 0.721-0.152 0.52 0 0.922 0.198 1.206 0.595s0.427 0.886 0.427 1.47c0 0.645-0.155 1.137-0.465 1.476s-0.702 0.509-1.176 0.509c-0.229 0-0.438-0.034-0.627-0.102s-0.358-0.17-0.507-0.305v1.833h-1.5z" fill="rgb(255, 255, 255)"></path>
<path d="M54.1 13.725v1.5h0.825v1.125h-0.825v1.411c0 0.169 0.016 0.281 0.049 0.336 0.050 0.085 0.138 0.128 0.264 0.128 0.113 0 0.271-0.032 0.475-0.097l0.112 0.961c-0.373 0.074-0.722 0.111-1.046 0.111-0.376 0-0.653-0.047-0.831-0.141s-0.31-0.236-0.395-0.428c-0.085-0.192-0.128-0.502-0.128-0.93v-1.351h-0.525v-1.125h0.525v-0.724l1.5-0.776z" fill="rgb(255, 255, 255)"></path>
<path d="M64 45.616c-4.783-4.941-20.25-20.491-20.25-20.491h-22.5l-2.5 20.875 18.375 18h26.875v-18.384z" fill="rgba(1, 1, 1, 0.190999999642372)"></path>
<path d="M38.352 33.345l4.443 0.022-0.371 2.994-0.203 1.61-0.996 8.027-11.752 4.002-10.755-4.002 0.657-5.335h4.446l-0.267 2.199 6.502 2.416 7.113-2.416 0.625-5.037h-13.677l-4.442-0.022 0.371-2.994 0.203-1.61 0.996-8.027 11.752-4.002 10.755 4.002-0.657 5.335h-4.446l0.267-2.199-6.502-2.415-7.113 2.415-0.625 5.037h13.677z" fill="rgb(255, 255, 255)"></path>
</svg>
