<?xml version="1.0" encoding="utf-8"?>
<!-- Generated by IcoMoon.io -->
<!DOCTYPE svg PUBLIC "-//W3C//DTD SVG 1.1//EN" "http://www.w3.org/Graphics/SVG/1.1/DTD/svg11.dtd">
<svg version="1.1" xmlns="http://www.w3.org/2000/svg" xmlns:xlink="http://www.w3.org/1999/xlink" width="64" height="64" viewBox="0 0 64 64">
<path d="M0 64h64v-64h-64v64z" fill="rgb(53, 88, 168)"></path>
<path d="M48.625 28.125h-36.75l-1.75 8.625 32 27.25h21.875v-22.75l-15.375-13.125z" fill="rgba(1, 1, 1, 0.101999998092651)"></path>
<path d="M39.972 28.544l0.037 0.157c0.011 0.045-0.018 0.082-0.064 0.082z" fill="rgb(93, 163, 194)"></path>
<path d="M36.975 28.274c-0.009 0.044-0.020 0.099-0.028 0.135l-0.329 1.538 0.346-1.621 0.011-0.053z" fill="rgb(93, 163, 194)"></path>
<path d="M27.128 29.304l-0.181 0.643 0.181-0.642v-0z" fill="rgb(93, 163, 194)"></path>
<path d="M48.585 27.475l-0.196-0.828c-0.154-0.599-0.592-0.882-1.575-0.882h-4.136c-0.095 0-0.191 0.043-0.21 0.136l-1.569 7.443c-0.020 0.094-0.026 0.161-0.016 0.208 0.011 0.048 0.195 0.039 0.289 0.039h1.433c0.096 0 0.27 0.007 0.321-0.013 0.053-0.022 0.076-0.164 0.096-0.258l0.506-2.61 0.619-2.895c0.020-0.093 0.114-0.169 0.209-0.169l4.097-0.003c0.095 0 0.154-0.076 0.133-0.169z" fill="rgb(255, 255, 255)"></path>
<path d="M54.414 24.457c-0.096 0.001-1.817 0-1.817 0-0.095 0-0.218 0.102-0.271 0.181l-3.19 4.693c-0.054 0.079-0.116 0.076-0.137-0.017l-0.236-1.029c-0.020-0.093-0.115-0.169-0.212-0.169h-2.050c-0.094 0-0.151 0.079-0.126 0.171l0.919 3.222c0.027 0.092 0.029 0.243 0.005 0.335l-0.428 1.632c-0.023 0.093 0.036 0.12 0.133 0.12h2.024c0.095 0 0.193-0.028 0.217-0.12l0.429-1.655c0.023-0.092 0.090-0.218 0.147-0.294l5.206-6.904c0.059-0.076 0.050-0.166-0.045-0.166l-0.566 0z" fill="rgb(255, 255, 255)"></path>
<path d="M33.069 25.771h-1.85c-0.094 0-0.191 0.033-0.21 0.127l-0.611 2.861-0.609 2.74c-0.020 0.093-0.114 0.086-0.209 0.086h-1.216c-1.203 0-1.064-0.76-0.817-1.899 0.003-0.011 0.771-3.789 0.771-3.789 0.017-0.093-0.045-0.127-0.14-0.127h-1.763c-0.095 0-0.19 0.034-0.208 0.127l-0.709 3.786c-0.354 2.047-0.364 3.848 2.009 3.907 0.039 0.002 3.748 0 3.748 0 0.096 0 0.19-0.032 0.211-0.124l0.805-3.796 0.802-3.812c0-0 0.029-0.087-0.004-0.087z" fill="rgb(255, 255, 255)"></path>
<path d="M14.641 25.765h-1.984c-0.095 0-0.191 0.023-0.212 0.116l-0.358 1.549c-0.020 0.091 0.040 0.165 0.136 0.165h1.899c0.096 0 0.191-0.087 0.211-0.179l0.345-1.561c0 0 0.027-0.090-0.038-0.090z" fill="rgb(255, 255, 255)"></path>
<path d="M12.095 28.117c-0.094 0-0.191 0.075-0.212 0.169l-0.267 1.181-0.597 2.728c0 0-0.318 1.45-0.348 1.541 0 0-0.267 1.047-0.906 1.005-0.297-0.020-0.637-0.088-0.637-0.088h-0.001c-0.178-0.054-0.191 0.131-0.213 0.224l-0.394 1.7c-0.023 0.093 0.038 0.177 0.133 0.178 0 0 0.854 0.12 1.457 0.12h0.099c1.49 0 2.277-0.876 2.78-3.255l0.59-2.753 0.553-2.561c0.020-0.093-0.036-0.18-0.131-0.18z" fill="rgb(255, 255, 255)"></path>
<path d="M38.631 29.027c0 0.104-0.327 0.084-0.327 0.084l-2.601-0.019c-0.090 0-0.116-0.126-0.122-0.216-0-0.003 0.007-0.108 0.014-0.134 0.201-0.698 0.801-1.096 1.752-1.096 1.070 0 1.299 0.53 1.299 1.119zM37.751 25.753c-3.337 0-4.133 2.063-4.576 4.107-0.443 2.084-0.405 3.732 3.047 3.732h0.125c1.37 0 3.034 0 3.034 0 0.093-0.002 0.187-0.087 0.206-0.18l0.339-1.322c0.020-0.094-0.044-0.121-0.138-0.121h-3.105c-1.125 0-1.527-0.346-1.488-1.125-0.001-0.088 0.101-0.314 0.196-0.314h4.783c0.21-0.001 0.217-0.124 0.217-0.124 0.487-2.198 0.519-4.653-2.639-4.653z" fill="rgb(255, 255, 255)"></path>
<path d="M21.567 30.048l-0.385 1.314c-0.026 0.092-0.135 0.154-0.23 0.154h-1.984c-1.505 0-1.871-1.163-1.505-2.899 0.367-1.774 1.095-2.872 2.576-2.984 2.024-0.153 2.438 1.277 1.948 2.92l-0.42 1.495zM23.33 31.44c0 0 0.934-2.27 1.147-3.582 0.29-1.756-0.588-4.302-3.984-4.302-3.376 0-4.841 2.431-5.402 5.074-0.558 2.662 0.173 4.98 3.53 4.961l5.124-0.003c0.094-0 0.193-0.077 0.217-0.168l0.432-1.645c0.023-0.093-0.035-0.168-0.131-0.169l-0.413-0.003-0.413-0.002c-0.081-0.001-0.128-0.053-0.117-0.123 0.002-0.013 0.003-0.025 0.009-0.038z" fill="rgb(255, 255, 255)"></path>
</svg>
