<?xml version="1.0" encoding="utf-8"?>
<!-- Generated by IcoMoon.io -->
<!DOCTYPE svg PUBLIC "-//W3C//DTD SVG 1.1//EN" "http://www.w3.org/Graphics/SVG/1.1/DTD/svg11.dtd">
<svg version="1.1" xmlns="http://www.w3.org/2000/svg" xmlns:xlink="http://www.w3.org/1999/xlink" width="64" height="64" viewBox="0 0 64 64">
<path d="M-0.125 64.125h64.125v-64.125h-64.125v64.125z" fill="rgb(156, 87, 163)"></path>
<path d="M50.223 30.059h-33.315l-4.634 5.761 20.791 28.305h30.935v-19.914l-13.777-14.152z" fill="rgba(1, 1, 1, 0.101999998092651)"></path>
<path d="M36.85 28.274c-0.010 0.044-0.021 0.099-0.028 0.135l-0.329 1.538 0.346-1.621 0.011-0.053z" fill="rgb(93, 163, 194)"></path>
<path d="M27.003 29.304l-0.182 0.643 0.182-0.642v-0z" fill="rgb(93, 163, 194)"></path>
<path d="M12.255 35.841v-2.606c0.484 0.4 1.009 0.7 1.575 0.9s1.137 0.3 1.714 0.3c0.339 0 0.635-0.032 0.888-0.096s0.464-0.153 0.633-0.267c0.17-0.113 0.296-0.247 0.379-0.401s0.125-0.32 0.125-0.501c0-0.232-0.066-0.44-0.198-0.623s-0.313-0.352-0.541-0.508c-0.228-0.155-0.499-0.305-0.813-0.45s-0.652-0.292-1.014-0.442c-0.925-0.388-1.614-0.862-2.068-1.422s-0.68-1.237-0.68-2.030c0-0.621 0.125-1.155 0.376-1.602s0.593-0.814 1.026-1.104c0.433-0.289 0.934-0.502 1.504-0.637s1.173-0.203 1.81-0.203c0.625 0 1.179 0.037 1.662 0.111s0.928 0.188 1.335 0.341v2.462c-0.198-0.143-0.414-0.269-0.648-0.378s-0.475-0.199-0.723-0.27c-0.248-0.072-0.495-0.124-0.739-0.158s-0.478-0.051-0.699-0.051c-0.302 0-0.577 0.030-0.825 0.091s-0.458 0.146-0.628 0.257c-0.171 0.111-0.303 0.243-0.396 0.398s-0.141 0.327-0.141 0.518c0 0.2 0.052 0.379 0.157 0.537s0.253 0.308 0.446 0.449c0.193 0.141 0.427 0.28 0.702 0.416s0.586 0.276 0.932 0.419c0.473 0.2 0.898 0.412 1.275 0.637s0.7 0.479 0.97 0.762c0.27 0.283 0.476 0.606 0.619 0.97s0.214 0.786 0.214 1.268c0 0.666-0.128 1.225-0.383 1.677s-0.602 0.818-1.039 1.098c-0.438 0.281-0.946 0.482-1.527 0.604s-1.193 0.184-1.837 0.184c-0.662 0-1.292-0.054-1.89-0.163s-1.115-0.271-1.552-0.487z" fill="rgb(255, 255, 255)"></path>
<path d="M28.421 31.521l-1.296-4.034c-0.096-0.302-0.163-0.662-0.198-1.079h-0.070c-0.023 0.354-0.096 0.701-0.217 1.042l-1.302 4.071h3.083zM32.867 36.321h-2.962l-0.764-2.4h-4.473l-0.769 2.4h-2.946l4.395-11.999h3.225l4.294 11.999z" fill="rgb(255, 255, 255)"></path>
<path d="M33.853 35.841v-2.606c0.484 0.4 1.009 0.7 1.575 0.9s1.137 0.3 1.714 0.3c0.34 0 0.635-0.032 0.888-0.096s0.464-0.153 0.633-0.267c0.17-0.113 0.296-0.247 0.379-0.401s0.125-0.32 0.125-0.501c0-0.232-0.066-0.44-0.198-0.623s-0.313-0.352-0.541-0.508c-0.229-0.155-0.499-0.305-0.813-0.45s-0.651-0.292-1.014-0.442c-0.925-0.388-1.614-0.862-2.068-1.422s-0.68-1.237-0.68-2.030c0-0.621 0.126-1.155 0.377-1.602s0.593-0.814 1.026-1.104c0.433-0.289 0.934-0.502 1.504-0.637s1.173-0.203 1.81-0.203c0.625 0 1.179 0.037 1.662 0.111s0.928 0.188 1.336 0.341v2.462c-0.198-0.143-0.414-0.269-0.648-0.378s-0.475-0.199-0.723-0.27c-0.248-0.072-0.494-0.124-0.739-0.158s-0.477-0.051-0.699-0.051c-0.302 0-0.577 0.030-0.825 0.091s-0.458 0.146-0.628 0.257c-0.17 0.111-0.303 0.243-0.396 0.398s-0.141 0.327-0.141 0.518c0 0.2 0.052 0.379 0.157 0.537s0.253 0.308 0.446 0.449c0.193 0.141 0.427 0.28 0.702 0.416s0.586 0.276 0.932 0.419c0.473 0.2 0.898 0.412 1.275 0.637s0.7 0.479 0.97 0.762c0.27 0.283 0.476 0.606 0.618 0.97s0.215 0.786 0.215 1.268c0 0.666-0.128 1.225-0.383 1.677s-0.602 0.818-1.039 1.098c-0.438 0.281-0.947 0.482-1.527 0.604s-1.193 0.184-1.837 0.184c-0.663 0-1.292-0.054-1.89-0.163s-1.115-0.271-1.552-0.487z" fill="rgb(255, 255, 255)"></path>
<path d="M43.453 35.841v-2.606c0.484 0.4 1.009 0.7 1.575 0.9s1.138 0.3 1.714 0.3c0.339 0 0.635-0.032 0.888-0.096s0.464-0.153 0.633-0.267c0.169-0.113 0.296-0.247 0.379-0.401s0.125-0.32 0.125-0.501c0-0.232-0.066-0.44-0.198-0.623s-0.313-0.352-0.541-0.508c-0.229-0.155-0.5-0.305-0.813-0.45s-0.651-0.292-1.013-0.442c-0.925-0.388-1.614-0.862-2.068-1.422s-0.68-1.237-0.68-2.030c0-0.621 0.125-1.155 0.376-1.602s0.593-0.814 1.026-1.104c0.433-0.289 0.934-0.502 1.504-0.637s1.173-0.203 1.81-0.203c0.625 0 1.179 0.037 1.662 0.111s0.928 0.188 1.335 0.341v2.462c-0.198-0.143-0.414-0.269-0.648-0.378s-0.475-0.199-0.723-0.27c-0.248-0.072-0.495-0.124-0.739-0.158s-0.477-0.051-0.699-0.051c-0.302 0-0.577 0.030-0.825 0.091s-0.457 0.146-0.628 0.257c-0.171 0.111-0.303 0.243-0.397 0.398s-0.141 0.327-0.141 0.518c0 0.2 0.052 0.379 0.157 0.537s0.253 0.308 0.446 0.449c0.193 0.141 0.427 0.28 0.702 0.416s0.586 0.276 0.932 0.419c0.473 0.2 0.898 0.412 1.275 0.637s0.7 0.479 0.97 0.762c0.27 0.283 0.476 0.606 0.619 0.97s0.214 0.786 0.214 1.268c0 0.666-0.128 1.225-0.383 1.677s-0.602 0.818-1.039 1.098c-0.437 0.281-0.946 0.482-1.527 0.604s-1.193 0.184-1.837 0.184c-0.663 0-1.292-0.054-1.889-0.163s-1.115-0.271-1.552-0.487z" fill="rgb(255, 255, 255)"></path>
</svg>
