<?xml version="1.0" encoding="utf-8"?>
<!-- Generated by IcoMoon.io -->
<!DOCTYPE svg PUBLIC "-//W3C//DTD SVG 1.1//EN" "http://www.w3.org/Graphics/SVG/1.1/DTD/svg11.dtd">
<svg version="1.1" xmlns="http://www.w3.org/2000/svg" xmlns:xlink="http://www.w3.org/1999/xlink" width="64" height="64" viewBox="0 0 64 64">
<path d="M63.986 12.154c-2.354 1.046-4.882 1.752-7.54 2.066 2.71-1.624 4.792-4.196 5.774-7.26-2.538 1.502-5.346 2.598-8.336 3.184-2.396-2.55-5.808-4.144-9.586-4.144-7.25 0-13.124 5.876-13.124 13.126 0 1.028 0.114 2.032 0.338 2.992-10.91-0.548-20.582-5.774-27.058-13.716-1.128 1.94-1.776 4.194-1.776 6.6 0 4.556 2.318 8.572 5.838 10.928-2.15-0.070-4.174-0.658-5.944-1.642-0.002 0.054-0.002 0.112-0.002 0.164 0 6.362 4.524 11.668 10.53 12.874-1.1 0.298-2.26 0.46-3.458 0.46-0.848 0-1.668-0.082-2.468-0.234 1.668 5.212 6.518 9.008 12.26 9.116-4.49 3.52-10.15 5.622-16.3 5.622-1.060 0-2.106-0.062-3.132-0.184 5.808 3.72 12.708 5.894 20.122 5.894 24.144 0 37.35-20.002 37.35-37.35 0-0.568-0.016-1.136-0.040-1.7 2.566-1.85 4.79-4.16 6.552-6.796z" fill="rgb(68, 68, 68)"></path>
</svg>
