<?xml version="1.0" ?><!DOCTYPE svg  PUBLIC '-//W3C//DTD SVG 1.1//EN'  'http://www.w3.org/Graphics/SVG/1.1/DTD/svg11.dtd'><svg height="512px" style="shape-rendering:geometricPrecision; text-rendering:geometricPrecision; image-rendering:optimizeQuality; fill-rule:evenodd; clip-rule:evenodd" viewBox="0 0 132.809 132.81" width="512px" xml:space="preserve" xmlns="http://www.w3.org/2000/svg" xmlns:xlink="http://www.w3.org/1999/xlink"><defs><style type="text/css">
   <![CDATA[
    .fil0 {fill:#EB5E4C}
   ]]>
  </style></defs><g id="Layer_x0020_1"><path class="fil0" d="M-0 0l132.809 0 0 132.81 -132.809 0 0 -132.81zm67.4409 30.0903c4.79534,2.73279 7.31346,9.07386 7.31346,15.2877 0,5.69841 -2.70924,10.2899 -7.18291,13.7703 -4.36869,3.40371 -5.19506,4.8236 -5.19506,7.71722 0,2.46496 5.21659,6.13784 7.61763,7.93054 8.34978,6.24417 9.92243,10.1728 10.0415,17.9768 0.154775,10.3733 -10.5348,19.361 -27.6623,19.361 -15.0287,0 -27.556,-6.7529 -27.556,-16.4997 0,-14.7124 10.3632,-18.8132 25.3919,-18.8132 1.6386,-0.000672935 3.13722,-0.0437408 4.69103,-0.0437408 -2.05514,-1.98381 -3.71729,-4.35187 -3.71729,-7.36056 0.000672935,-1.79472 0.569303,-3.50263 1.37077,-5.0275 -0.812233,0.051816 -1.64936,0.041049 -2.50534,0.041049 -12.3443,-0.00134587 -19.8866,-8.57992 -19.9209,-19.4155 -0.0390302,-11.8114 11.3302,-20.1187 24.4511,-20.1187 6.76636,-0.00134587 25.3145,0.00672935 25.3145,0.00672935l-5.18833 5.18766 -7.26366 0zm-14.707 52.927c-9.56375,0 -17.4707,3.58271 -17.4707,10.3228 0,6.87201 7.05303,12.5381 16.8126,12.5381 13.7272,0 18.5091,-5.31215 18.5091,-12.1929 0,-0.831075 -0.0242257,-1.66417 -0.312915,-2.42257 -3.31084,-8.24547 -13.9816,-8.24547 -17.538,-8.24547zm11.4628 -36.5882c-1.13793,-8.61492 -5.31619,-15.0933 -11.9298,-15.2958 -6.61361,-0.191787 -12.7387,5.81416 -11.5893,14.4291 1.13928,8.62232 7.75221,14.4008 14.3699,14.6047 6.61428,0.190441 10.2878,-5.11229 9.14923,-13.738zm33.3513 -4.94675l-0.0148046 12.4722 -4.1473 0.030955 0 -12.5031 -12.4607 0 0 -4.09885 12.4607 0 0 -12.4796 4.1621 0 0 12.4796 12.4103 0 0 4.09885 -12.4103 0z"/></g></svg>