<svg display="none" width="0" height="0" version="1.1" xmlns="http://www.w3.org/2000/svg" xmlns:xlink="http://www.w3.org/1999/xlink">
<defs>
<symbol id="icon-jquery" viewBox="0 0 1024 1024">
	<title>jquery</title>
	<path class="path1" d="M0 1024h1024v-1024h-1024v1024z"></path>
	<path class="path2" d="M778.002 450h-588l-28 138 512 436h350v-364l-246-210z"></path>
	<path class="path3" d="M639.548 456.71l0.598 2.518c0.168 0.724-0.29 1.308-1.028 1.308z"></path>
	<path class="path4" d="M591.602 452.39c-0.148 0.696-0.328 1.578-0.452 2.162l-5.258 24.612 5.532-25.93 0.178-0.844z"></path>
	<path class="path5" d="M434.040 468.862l-2.904 10.284 2.904-10.28v-0.004z"></path>
	<path class="path6" d="M777.36 439.594l-3.132-13.244c-2.47-9.586-9.47-14.118-25.208-14.118h-66.182c-1.526 0-3.048 0.688-3.36 2.18l-25.11 119.080c-0.328 1.508-0.422 2.578-0.252 3.32 0.18 0.768 3.122 0.626 4.632 0.626h22.924c1.534 0 4.32 0.116 5.13-0.21 0.848-0.35 1.222-2.62 1.534-4.124l8.102-41.752 9.898-46.314c0.322-1.484 1.822-2.702 3.342-2.702l65.558-0.044c1.514 0 2.472-1.212 2.124-2.698z"></path>
	<path class="path7" d="M870.624 391.32c-1.538 0.018-29.076 0-29.076 0-1.524 0-3.482 1.638-4.33 2.896l-51.038 75.082c-0.87 1.262-1.854 1.216-2.194-0.268l-3.77-16.456c-0.324-1.492-1.848-2.708-3.39-2.708h-32.802c-1.51 0-2.416 1.26-2.022 2.732l14.704 51.546c0.426 1.478 0.464 3.886 0.086 5.364l-6.856 26.11c-0.366 1.48 0.572 1.928 2.12 1.928h32.388c1.52 0 3.094-0.444 3.464-1.928l6.864-26.476c0.376-1.476 1.432-3.484 2.344-4.712l83.29-110.456c0.938-1.21 0.8-2.662-0.718-2.662l-9.064 0.008z"></path>
	<path class="path8" d="M529.112 412.334h-29.604c-1.508 0-3.054 0.532-3.356 2.026l-9.784 45.782-9.746 43.838c-0.312 1.484-1.822 1.382-3.348 1.382h-19.454c-19.248 0-17.026-12.158-13.068-30.384 0.046-0.182 12.344-60.618 12.344-60.618 0.27-1.49-0.726-2.026-2.234-2.026h-28.206c-1.524 0-3.036 0.536-3.332 2.026l-11.346 60.57c-5.66 32.75-5.832 61.568 32.148 62.518 0.626 0.024 59.968 0 59.968 0 1.536 0 3.042-0.504 3.37-1.978l12.878-60.742 12.83-60.994c0.002-0.002 0.458-1.4-0.060-1.4z"></path>
	<path class="path9" d="M234.252 412.232h-31.738c-1.522 0-3.058 0.362-3.394 1.86l-5.728 24.782c-0.326 1.464 0.648 2.636 2.184 2.636h30.39c1.536 0 3.058-1.384 3.38-2.862l5.518-24.968c0 0 0.44-1.448-0.612-1.448z"></path>
	<path class="path10" d="M193.518 449.868c-1.51 0-3.060 1.206-3.386 2.696l-4.278 18.9-9.546 43.648c0 0-5.082 23.208-5.57 24.66 0 0-4.278 16.752-14.496 16.080-4.754-0.312-10.188-1.404-10.188-1.404h-0.014c-2.854-0.864-3.054 2.102-3.404 3.584l-6.304 27.196c-0.362 1.486 0.614 2.826 2.122 2.85 0 0 13.666 1.924 23.312 1.924h1.586c23.838 0 36.43-14.016 44.48-52.072l9.434-44.050 8.848-40.984c0.326-1.492-0.572-2.876-2.096-2.876z"></path>
	<path class="path11" d="M618.094 464.44c0 1.656-5.226 1.342-5.226 1.342l-41.62-0.304c-1.438 0-1.85-2.016-1.95-3.456-0.002-0.050 0.106-1.73 0.226-2.146 3.218-11.162 12.816-17.534 28.032-17.534 17.122 0 20.778 8.488 20.778 17.906zM604.018 412.046c-53.384 0-66.132 33-73.22 65.706-7.092 33.348-6.484 59.708 48.756 59.708h1.994c21.916 0 48.542 0 48.542 0 1.496-0.028 2.996-1.396 3.294-2.878l5.43-21.152c0.314-1.5-0.698-1.942-2.206-1.942h-49.688c-17.996 0-24.438-5.542-23.808-17.992-0.012-1.414 1.61-5.020 3.13-5.020h76.53c3.36-0.020 3.468-1.988 3.468-1.988 7.79-35.162 8.302-74.442-42.222-74.442z"></path>
	<path class="path12" d="M345.078 480.764l-6.154 21.026c-0.424 1.476-2.16 2.458-3.682 2.458h-31.738c-24.084 0-29.938-18.614-24.084-46.386 5.88-28.392 17.522-45.96 41.21-47.738 32.386-2.442 39.014 20.432 31.162 46.72l-6.714 23.92zM373.282 503.044c0 0 14.952-36.32 18.348-57.316 4.642-28.090-9.412-68.836-63.75-68.836-54.016 0-77.454 38.896-86.426 81.188-8.934 42.594 2.762 79.678 56.48 79.378l81.988-0.050c1.51-0.004 3.084-1.226 3.47-2.682l6.916-26.32c0.376-1.486-0.562-2.694-2.096-2.698l-6.602-0.050-6.604-0.028c-1.296-0.014-2.044-0.856-1.872-1.972 0.024-0.202 0.050-0.406 0.148-0.614z"></path>
</symbol>
<symbol id="icon-github" viewBox="0 0 1024 1024">
	<title>github</title>
	<path class="path1" d="M0 1024h1024v-1024h-1024v1024z"></path>
	<path class="path2" d="M654 320l-294 4-44 208 252 492h456v-154l-370-550z"></path>
	<path class="path3" d="M591.604 452.39c-0.15 0.696-0.332 1.578-0.454 2.162l-5.26 24.612 5.714-26.774z"></path>
	<path class="path4" d="M434.040 468.862l-2.904 10.284 2.904-10.28v-0.004z"></path>
	<path class="path5" d="M648.376 250c7.806 17.728 12.862 47.164 5.314 68.724 30.858 26.34 41.466 90.39 26.57 142.726 43.974 3.36 96.36-1.608 130.172 11.886-31.61-4.062-74.782-12.036-115.548-9.26-7.726 0.524-19.17-0.294-18.608 10.572 47.194 3.708 94.090 7.742 132.84 19.832-38.428-6.28-85.084-15.834-132.84-17.172-19.728 38.93-59.432 58.058-114.238 62.090 5.89 12.818 17.174 17.7 19.938 38.324 4.104 30.806-6.438 75.93 3.962 96.462 4.99 9.836 13.12 10.102 18.608 18.51-13.426 15.888-46.702-1.778-50.492-18.51-6.492-28.654 9.89-73.078-7.964-92.5 1.264 31.25-7.384 75.148 1.332 103.070 3.44 10.982 13.354 15.216 10.632 25.118-62.392 6.336-36.328-80.756-46.518-132.15-9.41 0.666-5.28 14.096-5.304 19.824-0.276 50.2 10.27 119.042-43.834 112.326-1.59-10.544 7.258-14.134 10.62-23.774 9.876-28.244-1.848-70.326 2.682-104.414-20.652 15.568 2.164 69.92-10.63 97.782-7.376 16.040-31.128 23.018-49.15 15.86 2.344-11.946 14.684-10.014 19.91-21.14 7.308-15.516 0.052-37.854 2.672-60.784-38.232 7.626-67.876-1.106-82.378-25.114-6.488-10.776-8.104-23.484-15.95-33.032-7.802-9.554-20.276-10.836-23.896-23.776 47.338-11.39 49.15 48.712 91.67 50.204 13.030 0.47 19.804-3.766 31.872-6.596 3.372-15.162 10.606-26.46 21.25-34.378-52.892-7.242-96.58-23.71-116.896-63.402-48.094 2.368-92.096 8.79-132.854 18.484 36.992-13.438 82.624-18.254 131.526-19.832-2.88-17.32-28.144-12.556-43.834-11.884-29.146 1.284-65.84 4.908-89.008 9.26 33.592-11.978 80.71-10.48 126.21-10.574-13.918-43.63-9.096-112.942 21.252-138.756-8.6-21.672-5.93-57.126 5.314-74.008 33.88 1.522 54.43 16.298 75.72 30.404 26.396-7.512 54.154-11.246 90.324-9.258 15.218 0.846 31.040 7.68 42.492 6.598 11.246-1.050 23.638-13.666 34.544-18.486 14.228-6.274 26.256-8.67 42.516-9.256z"></path>
</symbol>
<symbol id="icon-sass" viewBox="0 0 1024 1024">
	<title>sass</title>
	<path class="path1" d="M-2 1026h1026v-1026h-1026v1026z"></path>
	<path class="path2" d="M803.57 480.938h-533.038l-74.146 92.18 332.65 452.882h494.964v-318.622l-220.43-226.44z"></path>
	<path class="path3" d="M589.604 452.39c-0.152 0.696-0.332 1.578-0.454 2.162l-5.26 24.612 5.532-25.93 0.182-0.844z"></path>
	<path class="path4" d="M432.040 468.862l-2.908 10.284 2.908-10.28v-0.004z"></path>
	<path class="path5" d="M196.074 573.46v-41.696c7.742 6.398 16.142 11.2 25.198 14.398 9.058 3.202 18.2 4.8 27.428 4.8 5.426 0 10.162-0.518 14.208-1.544 4.042-1.030 7.418-2.45 10.13-4.264 2.718-1.814 4.738-3.952 6.066-6.408 1.332-2.456 1.994-5.126 1.994-8.012 0-3.714-1.054-7.036-3.17-9.962-2.114-2.928-5-5.636-8.658-8.12-3.654-2.488-7.99-4.888-13.002-7.204-5.016-2.314-10.424-4.67-16.222-7.068-14.798-6.204-25.828-13.788-33.084-22.758s-10.886-19.798-10.886-32.486c0-9.942 2.006-18.482 6.020-25.624 4.016-7.142 9.486-13.030 16.414-17.656 6.928-4.628 14.95-8.028 24.064-10.2 9.112-2.17 18.77-3.256 28.968-3.256 10.002 0 18.864 0.592 26.594 1.776 7.728 1.188 14.848 3.010 21.362 5.464v39.384c-3.172-2.286-6.628-4.3-10.374-6.042-3.74-1.744-7.598-3.184-11.57-4.326-3.97-1.144-7.914-1.986-11.828-2.532-3.914-0.542-7.642-0.812-11.184-0.812-4.83 0-9.228 0.486-13.198 1.458-3.97 0.97-7.322 2.342-10.050 4.116-2.728 1.77-4.844 3.89-6.344 6.364-1.5 2.47-2.25 5.234-2.25 8.292 0 3.202 0.836 6.066 2.506 8.59 1.672 2.53 4.052 4.924 7.136 7.182 3.086 2.256 6.83 4.478 11.228 6.664 4.4 2.184 9.37 4.416 14.916 6.708 7.57 3.198 14.37 6.598 20.396 10.2 6.028 3.598 11.2 7.66 15.516 12.19 4.312 4.532 7.612 9.7 9.896 15.514 2.288 5.814 3.428 12.578 3.428 20.292 0 10.654-2.042 19.598-6.126 26.826s-9.628 13.084-16.626 17.568c-7 4.488-15.14 7.708-24.426 9.664-9.286 1.958-19.084 2.936-29.398 2.936-10.6 0-20.678-0.872-30.236-2.616-9.558-1.74-17.838-4.34-24.836-7.8z"></path>
	<path class="path6" d="M454.74 504.336l-20.74-64.54c-1.542-4.826-2.6-10.584-3.17-17.268h-1.114c-0.372 5.656-1.528 11.214-3.472 16.67l-20.828 65.136h49.324zM525.878 581.132h-47.396l-12.216-38.396h-71.566l-12.3 38.396h-47.14l70.324-191.99h51.594l68.7 191.99z"></path>
	<path class="path7" d="M541.648 573.46v-41.696c7.744 6.398 16.14 11.2 25.202 14.398 9.056 3.202 18.196 4.8 27.424 4.8 5.432 0 10.164-0.518 14.208-1.544 4.042-1.030 7.422-2.45 10.134-4.264 2.714-1.814 4.734-3.952 6.060-6.408 1.332-2.456 1.994-5.126 1.994-8.012 0-3.714-1.056-7.036-3.17-9.962s-5-5.636-8.654-8.12c-3.658-2.488-7.992-4.888-13.006-7.204-5.016-2.314-10.424-4.67-16.224-7.068-14.794-6.204-25.822-13.788-33.082-22.758-7.256-8.97-10.884-19.798-10.884-32.486 0-9.942 2.010-18.482 6.024-25.624 4.012-7.142 9.48-13.030 16.414-17.656 6.924-4.628 14.946-8.028 24.062-10.2 9.112-2.17 18.768-3.256 28.966-3.256 10 0 18.864 0.592 26.59 1.776 7.73 1.188 14.854 3.010 21.368 5.464v39.384c-3.174-2.286-6.628-4.3-10.374-6.042-3.744-1.744-7.6-3.184-11.572-4.326-3.97-1.144-7.91-1.986-11.83-2.532-3.908-0.542-7.638-0.812-11.184-0.812-4.826 0-9.224 0.486-13.198 1.458-3.97 0.97-7.322 2.342-10.050 4.116-2.726 1.77-4.84 3.89-6.342 6.364-1.498 2.47-2.25 5.234-2.25 8.292 0 3.202 0.838 6.066 2.508 8.59 1.668 2.53 4.048 4.924 7.132 7.182 3.090 2.256 6.832 4.478 11.23 6.664 4.398 2.184 9.372 4.416 14.914 6.708 7.566 3.198 14.368 6.598 20.398 10.2 6.028 3.598 11.2 7.66 15.514 12.19 4.312 4.532 7.61 9.7 9.896 15.514s3.432 12.578 3.432 20.292c0 10.654-2.042 19.598-6.128 26.826s-9.628 13.084-16.626 17.568c-7.004 4.488-15.144 7.708-24.428 9.664s-19.084 2.936-29.398 2.936c-10.602 0-20.678-0.872-30.234-2.616-9.556-1.74-17.834-4.34-24.836-7.8z"></path>
	<path class="path8" d="M695.24 573.46v-41.696c7.738 6.398 16.14 11.2 25.194 14.398 9.060 3.202 18.204 4.8 27.428 4.8 5.43 0 10.166-0.518 14.208-1.544 4.044-1.030 7.422-2.45 10.134-4.264 2.71-1.814 4.736-3.952 6.062-6.408 1.33-2.456 1.994-5.126 1.994-8.012 0-3.714-1.056-7.036-3.17-9.962-2.116-2.928-5-5.636-8.656-8.12-3.658-2.488-7.994-4.888-13.010-7.204-5.014-2.314-10.418-4.67-16.214-7.068-14.8-6.204-25.83-13.788-33.088-22.758-7.254-8.97-10.88-19.798-10.88-32.486 0-9.942 2.006-18.482 6.020-25.624 4.012-7.142 9.482-13.030 16.414-17.656 6.924-4.628 14.946-8.028 24.062-10.2 9.112-2.17 18.768-3.256 28.966-3.256 10 0 18.864 0.592 26.59 1.776 7.726 1.188 14.852 3.010 21.364 5.464v39.384c-3.17-2.286-6.626-4.3-10.368-6.042-3.742-1.744-7.602-3.184-11.57-4.326-3.972-1.144-7.918-1.986-11.832-2.532-3.914-0.542-7.638-0.812-11.182-0.812-4.828 0-9.228 0.486-13.202 1.458-3.968 0.97-7.318 2.342-10.046 4.116-2.73 1.77-4.844 3.89-6.344 6.364-1.5 2.47-2.252 5.234-2.252 8.292 0 3.202 0.838 6.066 2.508 8.59 1.674 2.53 4.052 4.924 7.136 7.182 3.084 2.256 6.826 4.478 11.226 6.664 4.398 2.184 9.372 4.416 14.912 6.708 7.572 3.198 14.372 6.598 20.398 10.2 6.028 3.598 11.204 7.66 15.516 12.19 4.314 4.532 7.616 9.7 9.9 15.514 2.282 5.814 3.428 12.578 3.428 20.292 0 10.654-2.042 19.598-6.126 26.826-4.086 7.228-9.628 13.084-16.63 17.568-6.998 4.488-15.142 7.708-24.428 9.664-9.284 1.958-19.082 2.936-29.396 2.936-10.6 0-20.676-0.872-30.232-2.616-9.56-1.74-17.836-4.34-24.834-7.8z"></path>
</symbol>
<symbol id="icon-html" viewBox="0 0 1024 1024">
	<title>html</title>
	<path class="path1" d="M0 1024h1024v-1024h-1024v1024z"></path>
	<path class="path2" d="M1024 729.29c-77.16-79.208-320.618-378.602-320.618-378.602h-393.21l35.586 389.458 285.032 283.854h393.21v-294.71z"></path>
	<path class="path3" d="M322.636 220.79h26.68v29.598h30.312v-29.598h26.676v85.246h-26.676v-34.334h-30.312v34.334h-26.68v-85.246z"></path>
	<path class="path4" d="M417.216 220.79h82.452v20.126h-27.888v65.12h-26.676v-65.12h-27.888v-20.126z"></path>
	<path class="path5" d="M510.584 220.79h35.162l13.394 52.060 13.26-52.060h35.188v85.246h-21.828v-64.634l-16.466 64.634h-20.252l-16.632-64.634v64.634h-21.826v-85.246z"></path>
	<path class="path6" d="M624.562 220.79h26.672v63.936h42.444v21.31h-69.116v-85.246z"></path>
	<path class="path7" d="M506.506 581.876h-175.216l-21.118-231.188h392.2l-1.87 20.51-3.568 38.758-1.572 17.184h-299.62l7.156 78.288h285.338l-1.912 20.53-18.396 201.27-1.178 12.918-160.606 43.476-160.386-43.476-10.966-120.040h78.598l5.576 60.972 87.27 22.964 87.322-23.010 9.094-99.156h-96.146z"></path>
</symbol>
<symbol id="icon-facebook" viewBox="0 0 1024 1024">
	<title>facebook</title>
	<path class="path1" d="M576 1024v-448h192l32-192h-224v-96c0-64 32.064-96 96-96h96v-192c-32 0-103.68 0-160 0-160 0-224 96-224 256v128h-192v192h192v448h192z"></path>
</symbol>
<symbol id="icon-twitter" viewBox="0 0 1024 1024">
	<title>twitter</title>
	<path class="path1" d="M1023.776 194.464c-37.664 16.736-78.112 28.032-120.64 33.056 43.36-25.984 76.672-67.136 92.384-116.16-40.608 24.032-85.536 41.568-133.376 50.944-38.336-40.8-92.928-66.304-153.376-66.304-116 0-209.984 94.016-209.984 210.016 0 16.448 1.824 32.512 5.408 47.872-174.56-8.768-329.312-92.384-432.928-219.456-18.048 31.040-28.416 67.104-28.416 105.6 0 72.896 37.088 137.152 93.408 174.848-34.4-1.12-66.784-10.528-95.104-26.272-0.032 0.864-0.032 1.792-0.032 2.624 0 101.792 72.384 186.688 168.48 205.984-17.6 4.768-36.16 7.36-55.328 7.36-13.568 0-26.688-1.312-39.488-3.744 26.688 83.392 104.288 144.128 196.16 145.856-71.84 56.32-162.4 89.952-260.8 89.952-16.96 0-33.696-0.992-50.112-2.944 92.928 59.52 203.328 94.304 321.952 94.304 386.304 0 597.6-320.032 597.6-597.6 0-9.088-0.256-18.176-0.64-27.2 41.056-29.6 76.64-66.56 104.832-108.736z"></path>
</symbol>
<symbol id="icon-google-plus" viewBox="0 0 1024 1024">
	<title>google-plus</title>
	<path class="path1" d="M525.6 589.28c-28.704-20.288-83.488-69.632-83.488-98.656 0-33.984 9.696-50.752 60.864-90.72 52.416-40.992 89.568-108.16 89.568-175.232 0-79.744-35.584-128.672-102.272-192.672h100.608l70.976-32c0 0-237.888 0-317.216 0-142.24 0-276.032 107.584-276.032 232.352 0 127.552 96.928 230.432 241.632 230.432 10.048 0 19.808-0.256 29.408-0.896-9.408 17.92-16.096 38.144-16.096 59.168 0 35.456 19.072 64.192 43.136 87.68-18.144 0-35.776 0.512-54.944 0.512-176.224-0.032-311.744 112.128-311.744 228.48 0 114.528 148.64 186.272 324.736 186.272 200.832 0 311.712-113.984 311.712-228.544 0.032-91.872-27.104-146.848-110.848-206.176zM356.128 430.336c-81.76-2.432-159.392-91.424-173.504-198.688-14.080-107.36 40.704-189.504 122.368-187.072 81.728 2.496 159.392 88.576 173.536 195.904 14.112 107.36-40.736 192.288-122.4 189.856zM324.096 973.28c-121.76 0-209.696-77.024-209.696-169.632 0-90.688 109.056-166.24 230.848-164.928 28.416 0.32 54.88 4.864 78.88 12.64 66.112 46.016 113.536 72 126.976 124.32 2.432 10.624 3.872 21.6 3.872 32.736 0 92.544-59.68 164.864-230.88 164.864z"></path>
	<path class="path2" d="M864 448v-160h-64v160h-160v64h160v160h64v-160h160v-64z"></path>
</symbol>
<symbol id="icon-github2" viewBox="0 0 1024 1024">
	<title>github2</title>
	<path class="path1" d="M0 1024h1024v-1024h-1024v1024z"></path>
	<path class="path2" d="M654 320l-294 4-44 208 252 492h456v-154l-370-550z"></path>
	<path class="path3" d="M591.604 452.39c-0.15 0.696-0.332 1.578-0.454 2.162l-5.26 24.612 5.714-26.774z"></path>
	<path class="path4" d="M434.040 468.862l-2.904 10.284 2.904-10.28v-0.004z"></path>
	<path class="path5" d="M648.376 250c7.806 17.728 12.862 47.164 5.314 68.724 30.858 26.34 41.466 90.39 26.57 142.726 43.974 3.36 96.36-1.608 130.172 11.886-31.61-4.062-74.782-12.036-115.548-9.26-7.726 0.524-19.17-0.294-18.608 10.572 47.194 3.708 94.090 7.742 132.84 19.832-38.428-6.28-85.084-15.834-132.84-17.172-19.728 38.93-59.432 58.058-114.238 62.090 5.89 12.818 17.174 17.7 19.938 38.324 4.104 30.806-6.438 75.93 3.962 96.462 4.99 9.836 13.12 10.102 18.608 18.51-13.426 15.888-46.702-1.778-50.492-18.51-6.492-28.654 9.89-73.078-7.964-92.5 1.264 31.25-7.384 75.148 1.332 103.070 3.44 10.982 13.354 15.216 10.632 25.118-62.392 6.336-36.328-80.756-46.518-132.15-9.41 0.666-5.28 14.096-5.304 19.824-0.276 50.2 10.27 119.042-43.834 112.326-1.59-10.544 7.258-14.134 10.62-23.774 9.876-28.244-1.848-70.326 2.682-104.414-20.652 15.568 2.164 69.92-10.63 97.782-7.376 16.040-31.128 23.018-49.15 15.86 2.344-11.946 14.684-10.014 19.91-21.14 7.308-15.516 0.052-37.854 2.672-60.784-38.232 7.626-67.876-1.106-82.378-25.114-6.488-10.776-8.104-23.484-15.95-33.032-7.802-9.554-20.276-10.836-23.896-23.776 47.338-11.39 49.15 48.712 91.67 50.204 13.030 0.47 19.804-3.766 31.872-6.596 3.372-15.162 10.606-26.46 21.25-34.378-52.892-7.242-96.58-23.71-116.896-63.402-48.094 2.368-92.096 8.79-132.854 18.484 36.992-13.438 82.624-18.254 131.526-19.832-2.88-17.32-28.144-12.556-43.834-11.884-29.146 1.284-65.84 4.908-89.008 9.26 33.592-11.978 80.71-10.48 126.21-10.574-13.918-43.63-9.096-112.942 21.252-138.756-8.6-21.672-5.93-57.126 5.314-74.008 33.88 1.522 54.43 16.298 75.72 30.404 26.396-7.512 54.154-11.246 90.324-9.258 15.218 0.846 31.040 7.68 42.492 6.598 11.246-1.050 23.638-13.666 34.544-18.486 14.228-6.274 26.256-8.67 42.516-9.256z"></path>
</symbol>
<symbol id="icon-javascript" viewBox="0 0 1024 1024">
	<title>javascript</title>
	<path class="path1" d="M0 1024h1024v-1024h-1024v1024z"></path>
	<path class="path2" d="M187.602 219.598h26.398v46.804c0 9.82-0.876 17.3-2.624 22.42-1.75 5.126-5.268 9.468-10.566 13.032-5.292 3.566-12.072 5.346-20.334 5.346-8.738 0-15.506-1.164-20.306-3.496-4.802-2.332-8.51-5.738-11.128-10.218s-4.166-10.024-4.64-16.622l26.398-3.266c0.038 3.58 0.364 6.23 0.978 7.962 0.61 1.732 1.648 3.126 3.11 4.19 1 0.702 2.422 1.050 4.258 1.050 2.912 0 5.048-1.098 6.41-3.298 1.364-2.206 2.046-5.908 2.046-11.122v-52.782z"></path>
	<path class="path3" d="M268.602 277.2c-3.126 1.114-6.376 2.094-9.752 2.948-4.61 1.224-7.53 2.43-8.754 3.618-1.262 1.22-1.894 2.618-1.894 4.18 0 1.778 0.622 3.226 1.864 4.36 1.246 1.13 3.070 1.698 5.486 1.698 2.536 0 4.89-0.616 7.058-1.838 2.168-1.224 3.708-2.72 4.62-4.482 0.916-1.76 1.372-4.050 1.372-6.862v-3.622zM250.602 265.2l-24-2.398c0.848-4.236 2.074-7.578 3.674-10.014 1.6-2.438 3.904-4.548 6.918-6.336 2.162-1.292 5.134-2.286 8.916-2.992 3.78-0.708 7.874-1.056 12.272-1.056 7.062 0 12.736 0.398 17.024 1.196 4.29 0.804 7.856 2.47 10.706 5.006 2.010 1.768 3.598 4.256 4.752 7.474 1.156 3.218 1.736 6.292 1.736 9.214v27.468c0 2.926 0.184 5.218 0.552 6.88 0.368 1.664 1.18 3.782 2.43 6.358h-22.952c-0.922-1.626-1.528-2.864-1.808-3.712-0.282-0.852-0.56-2.188-0.834-4.012-3.060 2.974-6.106 5.1-9.13 6.376-4.138 1.7-8.946 2.548-14.418 2.548-7.274 0-12.8-1.678-16.576-5.042s-5.662-7.508-5.662-12.434c0-4.626 1.354-8.428 4.068-11.4 2.712-2.984 7.724-5.206 15.036-6.656 8.75-1.748 14.426-2.976 17.026-3.684s5.354-1.634 8.268-2.786c0-2.66-0.532-4.528-1.586-5.596-1.056-1.070-2.906-1.604-5.558-1.604-3.402 0-5.95 0.616-7.65 1.838-1.322 0.952-2.392 2.74-3.204 5.364z"></path>
	<path class="path4" d="M296.798 243.598h24.566l12.036 39.546 11.964-39.546h24.636l-26.456 62.402h-21.076l-25.67-62.402z"></path>
	<path class="path5" d="M419.204 277.2c-3.126 1.114-6.376 2.094-9.752 2.948-4.61 1.224-7.53 2.43-8.752 3.618-1.262 1.22-1.896 2.618-1.896 4.18 0 1.778 0.622 3.226 1.864 4.36 1.246 1.13 3.074 1.698 5.486 1.698 2.536 0 4.892-0.616 7.060-1.838 2.168-1.224 3.708-2.72 4.624-4.482 0.912-1.76 1.368-4.050 1.368-6.862v-3.622zM401.204 265.2l-24-2.398c0.85-4.236 2.074-7.578 3.674-10.014 1.6-2.438 3.904-4.548 6.916-6.336 2.164-1.292 5.136-2.286 8.918-2.992 3.78-0.708 7.872-1.056 12.272-1.056 7.060 0 12.736 0.398 17.024 1.196 4.288 0.804 7.858 2.47 10.708 5.006 2.012 1.768 3.598 4.256 4.752 7.474 1.158 3.218 1.736 6.292 1.736 9.214v27.468c0 2.926 0.184 5.218 0.552 6.88 0.366 1.664 1.178 3.782 2.428 6.358h-22.954c-0.92-1.626-1.528-2.864-1.808-3.712-0.282-0.852-0.558-2.188-0.834-4.012-3.060 2.974-6.106 5.1-9.132 6.376-4.138 1.7-8.944 2.548-14.418 2.548-7.274 0-12.8-1.678-16.578-5.042-3.776-3.364-5.662-7.508-5.662-12.434 0-4.626 1.356-8.428 4.072-11.4 2.71-2.984 7.722-5.206 15.034-6.656 8.752-1.748 14.428-2.976 17.028-3.684s5.354-1.634 8.27-2.786c0-2.66-0.532-4.528-1.586-5.596-1.058-1.070-2.908-1.604-5.558-1.604-3.4 0-5.95 0.616-7.65 1.838-1.326 0.952-2.396 2.74-3.204 5.364z"></path>
	<path class="path6" d="M493.604 277.558l26.396-1.558c0.516 4.052 1.556 7.13 3.132 9.242 2.566 3.438 6.224 5.16 10.988 5.16 3.548 0 6.286-0.896 8.202-2.694 1.92-1.792 2.878-3.872 2.878-6.232 0-2.238-0.85-4.242-2.548-6.020-1.714-1.778-6.106-3.454-13.184-5.026-11.586-2.638-19.848-6.12-24.788-10.444-4.984-4.328-7.478-9.83-7.478-16.52 0-4.412 1.282-8.576 3.842-12.488 2.564-3.914 6.416-6.984 11.558-9.222 5.146-2.236 12.198-3.356 21.162-3.356 10.986 0 19.366 2.068 25.132 6.212 5.77 4.144 9.204 10.74 10.302 19.792l-26.396 1.596c-0.576-4.188-1.78-7.236-3.612-9.14-1.832-1.908-4.358-2.86-7.582-2.86-2.652 0-4.652 0.658-5.996 1.978-1.338 1.318-2.010 2.922-2.010 4.808 0 1.376 0.31 2.62 0.934 3.732 0.602 1.134 3.238 2.2 7.914 3.19 11.548 2.51 19.824 5.050 24.826 7.62 4.998 2.568 8.638 5.758 10.91 9.562 2.276 3.804 3.416 8.066 3.416 12.778 0 5.526-1.526 10.624-4.576 15.29-3.050 4.672-7.314 8.208-12.788 10.626-5.476 2.414-12.376 3.618-20.702 3.618-14.626 0-24.752-2.788-30.382-8.37-5.632-5.584-8.816-12.674-9.55-21.274z"></path>
	<path class="path7" d="M629.202 282l24 2.402c-1.248 4.65-3.302 8.672-6.158 12.062-2.856 3.394-6.5 6.030-10.93 7.916-4.434 1.88-10.070 2.818-16.926 2.818-6.598 0-12.098-0.612-16.502-1.838-4.398-1.222-8.18-3.208-11.342-5.952-3.16-2.742-5.64-5.96-7.444-9.656-1.798-3.698-2.7-8.594-2.7-14.692 0-6.376 1.096-11.684 3.284-15.918 1.598-3.114 3.792-5.904 6.572-8.374 2.778-2.468 5.63-4.31 8.558-5.522 4.66-1.9 10.626-2.848 17.886-2.848 10.176 0 17.932 1.728 23.272 5.192 5.336 3.462 9.074 8.534 11.226 15.208l-24 3.602c-0.648-2.778-1.834-4.872-3.56-6.284s-4.038-2.12-6.938-2.12c-3.664 0-6.626 1.456-8.898 4.36-2.268 2.908-3.402 7.302-3.402 13.19 0 5.252 1.136 9.238 3.414 11.962 2.274 2.726 5.174 4.086 8.702 4.086 2.934 0 5.402-0.78 7.402-2.35s3.498-3.982 4.484-7.244z"></path>
	<path class="path8" d="M664 243.598h22.352v10.726c2.164-4.538 4.392-7.656 6.698-9.368 2.294-1.706 5.138-2.554 8.526-2.554 3.54 0 7.416 1.054 11.626 3.166l-7.444 17.758c-2.836-1.148-5.080-1.728-6.73-1.728-3.14 0-5.576 1.272-7.314 3.808-2.472 3.574-3.712 10.262-3.712 20.062v20.532h-24v-62.402z"></path>
	<path class="path9" d="M718 243.598h24v62.402h-24v-62.402zM718 219.598h24v16.804h-24v-16.804z"></path>
	<path class="path10" d="M780.232 275.156c0 5.572 1.030 9.71 3.074 12.404 2.048 2.692 4.646 4.038 7.782 4.038 2.76 0 5.074-1.292 6.928-3.876 1.858-2.59 2.788-6.97 2.788-13.144 0-5.702-0.968-9.888-2.906-12.564-1.94-2.672-4.302-4.012-7.088-4.012-3.028 0-5.542 1.346-7.558 4.042-2.012 2.69-3.020 7.064-3.020 13.112zM756.402 330v-86.402h22.256v8.214c3.088-3.438 5.918-5.76 8.494-6.972 3.472-1.626 7.316-2.438 11.53-2.438 8.314 0 14.744 3.168 19.294 9.514 4.548 6.346 6.826 14.184 6.826 23.52 0 10.314-2.48 18.184-7.434 23.618-4.958 5.432-11.23 8.146-18.818 8.146-3.662 0-7.004-0.544-10.032-1.638-3.026-1.096-5.73-2.72-8.118-4.886v29.324h-23.998z"></path>
	<path class="path11" d="M865.604 219.598v24h13.2v18h-13.2v22.58c0 2.71 0.26 4.502 0.788 5.38 0.796 1.362 2.204 2.040 4.22 2.040 1.812 0 4.34-0.516 7.594-1.554l1.794 15.376c-5.974 1.184-11.554 1.78-16.738 1.78-6.016 0-10.45-0.748-13.296-2.252-2.852-1.494-4.958-3.782-6.32-6.852-1.366-3.066-2.042-8.028-2.042-14.878v-21.62h-8.402v-18h8.402v-11.586l24-12.414z"></path>
	<path class="path12" d="M1024 729.862c-76.532-79.050-324-327.862-324-327.862h-360l-40 334 294 288h430v-294.138z"></path>
	<path class="path13" d="M613.628 533.522l71.080 0.352-5.93 47.908-3.256 25.762-15.934 128.432-188.034 64.024-172.074-64.024 10.512-85.364h71.134l-4.278 35.18 104.032 38.648 113.8-38.648 9.994-80.592h-218.828l-71.076-0.352 5.932-47.904 3.256-25.766 15.932-128.43 188.038-64.024 172.072 64.024-10.51 85.366h-71.14l4.28-35.188-104.030-38.646-113.804 38.646-9.994 80.596h218.826z"></path>
</symbol>
<symbol id="icon-boostrap" viewBox="0 0 1024 1024">
	<title>boostrap</title>
	<path class="path1" d="M0 1024h1024v-1024h-1024v1024z"></path>
	<path class="path2" d="M218.798 283.598h14.364c4.85 0 8.27-0.78 10.258-2.342 1.986-1.562 2.98-3.67 2.98-6.318 0-2.45-0.984-4.418-2.956-5.906-1.968-1.486-5.414-2.23-10.338-2.23h-14.308v16.796zM218.798 250h12.246c4.4 0 7.458-0.628 9.176-1.894 1.72-1.262 2.578-3.080 2.578-5.456 0-2.212-0.858-3.944-2.578-5.184-1.716-1.246-4.712-1.87-8.99-1.87h-12.432v14.404zM192.4 217.598h50.604c8.44 0 14.916 1.996 19.428 5.984 4.51 3.986 6.768 8.924 6.768 14.814 0 4.934-1.606 9.166-4.82 12.692-2.138 2.366-5.27 4.226-9.392 5.586 6.114 1.542 10.608 4.182 13.488 7.926 2.882 3.744 4.322 8.444 4.322 14.108 0 4.614-1.042 8.754-3.136 12.43-2.096 3.676-4.97 6.588-8.618 8.736-2.25 1.34-5.65 2.31-10.202 2.91-6.048 0.81-10.062 1.216-12.038 1.216h-46.404v-86.402z"></path>
	<path class="path3" d="M306.4 272.762c0 5.736 1.084 9.976 3.252 12.722 2.168 2.744 4.896 4.114 8.184 4.114 3.312 0 6.036-1.352 8.166-4.056 2.13-2.708 3.198-7.046 3.198-13.022 0-5.562-1.076-9.708-3.226-12.432-2.15-2.726-4.806-4.088-7.97-4.088-3.362 0-6.134 1.378-8.326 4.146-2.184 2.758-3.278 6.966-3.278 12.616zM282.4 272.968c0-9.448 3.17-17.238 9.514-23.372 6.344-6.13 14.918-9.196 25.716-9.196 12.338 0 21.664 3.598 27.976 10.796 5.060 5.8 7.596 12.948 7.596 21.432 0 9.528-3.144 17.334-9.432 23.426-6.288 6.096-14.982 9.142-26.082 9.142-9.912 0-17.924-2.53-24.036-7.596-7.502-6.256-11.252-14.47-11.252-24.632z"></path>
	<path class="path4" d="M386.798 272.762c0 5.736 1.086 9.976 3.254 12.722 2.168 2.744 4.896 4.114 8.184 4.114 3.316 0 6.034-1.352 8.166-4.056 2.134-2.708 3.196-7.046 3.196-13.022 0-5.562-1.074-9.708-3.224-12.432-2.152-2.726-4.808-4.088-7.97-4.088-3.36 0-6.136 1.378-8.324 4.146-2.186 2.758-3.282 6.966-3.282 12.616zM362.798 272.968c0-9.448 3.176-17.238 9.518-23.372 6.344-6.13 14.914-9.196 25.714-9.196 12.338 0 21.66 3.598 27.972 10.796 5.064 5.8 7.594 12.948 7.594 21.432 0 9.528-3.144 17.334-9.432 23.426-6.286 6.096-14.982 9.142-26.080 9.142-9.914 0-17.926-2.53-24.038-7.596-7.494-6.256-11.248-14.47-11.248-24.632z"></path>
	<path class="path5" d="M474.402 217.598v24h13.198v18h-13.198v22.58c0 2.71 0.262 4.502 0.788 5.38 0.798 1.362 2.204 2.040 4.218 2.040 1.812 0 4.344-0.516 7.594-1.554l1.798 15.376c-5.976 1.184-11.556 1.78-16.742 1.78-6.016 0-10.448-0.748-13.294-2.252-2.852-1.496-4.958-3.782-6.318-6.852-1.366-3.066-2.044-8.028-2.044-14.878v-21.62h-8.402v-18h8.4v-11.586l24.002-12.414z"></path>
	<path class="path6" d="M494.798 287.2l24.002-2.4c0.85 2.574 2.042 4.416 3.58 5.53 1.538 1.112 3.584 1.67 6.128 1.67 2.802 0 4.97-0.67 6.51-2.004 1.188-0.99 1.782-2.218 1.782-3.7 0-1.672-0.488-2.966-1.464-3.878-0.7-0.65-3.826-1.45-9.372-2.398-8.3-1.416-14.068-2.732-17.29-3.966-3.226-1.23-5.946-3.308-8.16-6.236-2.208-2.924-3.314-6.254-3.314-9.994 0-4.098 1.186-7.626 3.562-10.588 2.372-2.964 5.644-5.178 9.804-6.64s9.75-2.192 16.762-2.192c7.398 0 12.864 0.568 16.388 1.71 3.524 1.148 6.464 2.924 8.812 5.326 2.35 2.408 4.308 5.66 5.872 9.76l-24.002 2.398c-0.528-1.91-1.4-3.31-2.626-4.198-1.678-1.202-3.698-1.802-6.056-1.802-2.412 0-4.17 0.47-5.27 1.398-1.102 0.932-1.648 2.066-1.648 3.406 0 1.47 0.744 2.592 2.23 3.356 1.472 0.762 4.83 1.448 10.068 2.058 7.954 0.876 13.858 2.104 17.728 3.678 3.87 1.572 6.83 3.828 8.884 6.758 2.058 2.93 3.088 6.15 3.088 9.648 0 3.536-1.080 6.98-3.246 10.332-2.164 3.35-5.57 6.014-10.226 7.998-4.656 1.978-10.996 2.968-19.022 2.968-11.354 0-19.432-1.56-24.244-4.69-4.808-3.124-7.896-7.56-9.26-13.308z"></path>
	<path class="path7" d="M600.402 217.598v24h13.196v18h-13.196v22.58c0 2.71 0.262 4.502 0.786 5.38 0.8 1.362 2.202 2.040 4.218 2.040 1.812 0 4.344-0.516 7.594-1.554l1.8 15.376c-5.978 1.184-11.558 1.78-16.744 1.78-6.014 0-10.448-0.748-13.294-2.252-2.85-1.496-4.958-3.782-6.314-6.852-1.37-3.066-2.044-8.028-2.044-14.878v-21.62h-8.404v-18h8.402v-11.586l24-12.414z"></path>
	<path class="path8" d="M624.402 241.598h22.348v10.726c2.162-4.538 4.394-7.656 6.696-9.368 2.3-1.706 5.144-2.554 8.532-2.554 3.536 0 7.412 1.054 11.622 3.166l-7.44 17.758c-2.838-1.148-5.084-1.728-6.734-1.728-3.136 0-5.576 1.272-7.31 3.808-2.476 3.574-3.71 10.262-3.71 20.062v20.532h-24v-62.402z"></path>
	<path class="path9" d="M722.2 275.2c-3.126 1.114-6.372 2.094-9.748 2.948-4.614 1.224-7.53 2.43-8.758 3.618-1.262 1.22-1.892 2.618-1.892 4.18 0 1.778 0.624 3.226 1.868 4.36 1.242 1.13 3.070 1.698 5.484 1.698 2.536 0 4.89-0.616 7.058-1.838 2.17-1.224 3.71-2.72 4.624-4.482 0.912-1.76 1.366-4.050 1.366-6.862v-3.622zM704.2 263.2l-24-2.398c0.854-4.236 2.076-7.578 3.674-10.014 1.604-2.438 3.908-4.548 6.922-6.336 2.162-1.29 5.132-2.286 8.914-2.992s7.874-1.056 12.272-1.056c7.068 0 12.738 0.398 17.026 1.196 4.288 0.804 7.86 2.47 10.708 5.006 2.012 1.768 3.596 4.256 4.752 7.474 1.154 3.218 1.734 6.292 1.734 9.214v27.468c0 2.926 0.186 5.218 0.554 6.88 0.37 1.664 1.178 3.782 2.428 6.358h-22.95c-0.926-1.626-1.53-2.864-1.808-3.712-0.284-0.852-0.56-2.188-0.836-4.012-3.060 2.974-6.104 5.1-9.132 6.376-4.134 1.7-8.944 2.548-14.42 2.548-7.274 0-12.796-1.678-16.57-5.042-3.778-3.364-5.664-7.508-5.664-12.434 0-4.626 1.356-8.428 4.068-11.4 2.71-2.984 7.724-5.206 15.038-6.656 8.748-1.748 14.426-2.976 17.026-3.684s5.356-1.634 8.268-2.786c0-2.66-0.526-4.528-1.584-5.596-1.054-1.070-2.906-1.604-5.558-1.604-3.402 0-5.95 0.616-7.65 1.838-1.33 0.952-2.398 2.74-3.212 5.364z"></path>
	<path class="path10" d="M784.432 273.156c0 5.572 1.026 9.71 3.074 12.404 2.050 2.692 4.646 4.038 7.782 4.038 2.766 0 5.072-1.292 6.93-3.876 1.856-2.59 2.786-6.97 2.786-13.144 0-5.702-0.97-9.89-2.91-12.564-1.934-2.672-4.3-4.012-7.086-4.012-3.026 0-5.544 1.346-7.556 4.042-2.016 2.69-3.020 7.064-3.020 13.112zM760.6 328v-86.402h22.256v8.214c3.088-3.438 5.922-5.76 8.494-6.972 3.472-1.626 7.318-2.438 11.532-2.438 8.31 0 14.744 3.168 19.292 9.514 4.552 6.346 6.83 14.184 6.83 23.52 0 10.314-2.482 18.184-7.438 23.618-4.954 5.432-11.228 8.146-18.814 8.146-3.662 0-7.004-0.544-10.032-1.638-3.026-1.096-5.732-2.72-8.12-4.886v29.324h-24z"></path>
	<path class="path11" d="M1024 729.862c-76.532-79.050-394-345.862-394-345.862l-296-22v438l260 224h430v-294.138z"></path>
	<path class="path12" d="M416.114 611.124v115.74h85.332c33.244 0 54.334-0.888 63.258-2.666 13.732-2.35 24.906-8.108 33.524-17.276s12.93-21.432 12.93-36.786c0-12.95-3.322-23.954-9.974-33.030-6.648-9.072-16.256-15.674-28.81-19.798-12.558-4.122-39.836-6.186-81.822-6.186h-74.438zM416.114 434.47v103.554h60.12c35.768 0 57.996-0.504 66.674-1.52 15.704-1.842 28.042-7.188 37.036-16.042 8.99-8.85 13.48-20.512 13.48-34.974 0-13.836-3.876-25.084-11.634-33.742-7.758-8.662-19.274-13.914-34.54-15.752-9.112-1.018-35.248-1.526-78.406-1.526h-52.73zM333.37 361.376h173.802c34.352 0 59.994 1.458 76.926 4.378 16.928 2.918 32.058 9.008 45.384 18.272 13.334 9.268 24.444 21.624 33.338 37.074 8.898 15.45 13.344 32.754 13.344 51.92 0 20.748-5.138 39.788-15.422 57.108-10.282 17.322-24.224 30.328-41.832 39.026 24.070 7.678 42.59 20.812 55.546 39.402 12.96 18.59 19.44 40.418 19.44 65.48 0 19.734-4.554 38.946-13.666 57.632-9.114 18.688-21.55 33.6-37.31 44.734-15.76 11.136-35.182 18.004-58.272 20.606-14.466 1.586-49.404 2.57-104.816 2.95h-146.464v-438.582z"></path>
</symbol>
<symbol id="icon-css" viewBox="0 0 1024 1024">
	<title>css</title>
	<path class="path1" d="M0 1024h1024v-1024h-1024v1024z"></path>
	<path class="path2" d="M436.762 270.876l25.53 7.914c-1.762 7.434-4.534 13.642-8.312 18.632-3.78 4.992-8.474 8.758-14.078 11.296-5.606 2.542-12.742 3.812-21.406 3.812-10.512 0-19.098-1.522-25.76-4.556-6.664-3.040-12.41-8.382-17.248-16.034-4.834-7.646-7.254-17.434-7.254-29.358 0-15.904 4.232-28.126 12.704-36.672 8.466-8.544 20.452-12.814 35.944-12.814 12.134 0 21.67 2.494 28.606 7.484 6.934 4.988 12.090 12.648 15.462 22.98l-26.874 5.814c-0.91-2.912-1.86-5.040-2.856-6.382-1.652-2.266-3.668-4.012-6.056-5.228-2.386-1.218-5.050-1.824-7.99-1.824-6.674 0-11.792 2.65-15.346 7.954-2.688 3.938-4.032 10.114-4.032 18.542 0 10.428 1.67 17.574 5.020 21.446 3.344 3.872 8.038 5.804 14.086 5.804 5.878 0 10.32-1.606 13.32-4.816 3.002-3.212 5.184-7.878 6.54-13.994z"></path>
	<path class="path3" d="M470.354 279.338l29.56-1.744c0.576 4.538 1.746 7.988 3.508 10.356 2.87 3.844 6.968 5.77 12.302 5.77 3.978 0 7.038-1.006 9.186-3.012 2.146-2.008 3.222-4.338 3.222-6.982 0-2.504-0.95-4.75-2.856-6.736-1.918-1.988-6.836-3.868-14.762-5.628-12.972-2.954-22.224-6.848-27.752-11.694-5.586-4.844-8.376-11.012-8.376-18.5 0-4.942 1.438-9.598 4.304-13.978 2.87-4.38 7.186-7.826 12.942-10.334 5.76-2.502 13.662-3.754 23.698-3.754 12.302 0 21.682 2.318 28.14 6.958 6.462 4.642 10.306 12.028 11.54 22.162l-29.562 1.784c-0.642-4.688-1.992-8.102-4.040-10.234-2.050-2.138-4.884-3.204-8.496-3.204-2.968 0-5.204 0.738-6.706 2.216-1.506 1.48-2.258 3.272-2.258 5.384 0 1.542 0.35 2.934 1.050 4.178 0.672 1.276 3.622 2.462 8.856 3.57 12.936 2.816 22.204 5.656 27.802 8.536 5.598 2.876 9.668 6.446 12.218 10.708 2.546 4.264 3.818 9.032 3.818 14.306 0 6.19-1.706 11.894-5.124 17.122-3.414 5.228-8.186 9.196-14.314 11.896-6.132 2.704-13.86 4.052-23.184 4.052-16.374 0-27.716-3.126-34.020-9.376-6.304-6.252-9.868-14.192-10.696-23.822z"></path>
	<path class="path4" d="M567.102 279.338l29.558-1.744c0.574 4.538 1.742 7.988 3.506 10.356 2.87 3.844 6.97 5.77 12.3 5.77 3.976 0 7.040-1.006 9.19-3.012 2.146-2.008 3.226-4.338 3.226-6.982 0-2.504-0.956-4.75-2.858-6.736-1.918-1.988-6.842-3.868-14.76-5.628-12.978-2.954-22.23-6.848-27.76-11.694-5.584-4.844-8.376-11.012-8.376-18.5 0-4.942 1.436-9.598 4.306-13.978 2.866-4.38 7.186-7.826 12.946-10.334 5.756-2.502 13.656-3.754 23.692-3.754 12.302 0 21.684 2.318 28.144 6.958 6.458 4.642 10.302 12.028 11.538 22.162l-29.562 1.784c-0.644-4.688-1.992-8.102-4.042-10.234-2.052-2.138-4.878-3.204-8.494-3.204-2.964 0-5.204 0.738-6.708 2.216-1.502 1.48-2.256 3.272-2.256 5.384 0 1.542 0.35 2.934 1.046 4.178 0.674 1.276 3.63 2.462 8.866 3.57 12.934 2.816 22.198 5.656 27.798 8.536 5.596 2.876 9.664 6.446 12.218 10.708 2.544 4.264 3.818 9.032 3.818 14.306 0 6.19-1.708 11.894-5.122 17.122-3.418 5.228-8.19 9.196-14.32 11.896-6.13 2.704-13.858 4.052-23.182 4.052-16.376 0-27.71-3.126-34.022-9.376-6.304-6.252-9.864-14.192-10.69-23.822z"></path>
	<path class="path5" d="M1024 729.864c-76.534-79.052-276-381.864-276-381.864h-406l-70 356 322 320h430v-294.136z"></path>
	<path class="path6" d="M342.92 348l-15.978 79.892h325.186l-10.15 51.606h-325.402l-15.762 79.892h325.186l-18.136 91.126-131.070 43.4-113.576-43.4 7.774-39.516h-79.892l-19.004 95.872 187.858 71.906 216.576-71.906 28.718-144.242 5.83-28.93 36.922-185.7h-405.080z"></path>
</symbol>
<symbol id="icon-facebook2" viewBox="0 0 1024 1024">
	<title>facebook2</title>
	<path class="path1" d="M672 192c-88.366 0-160 71.634-160 160v96h-128v128h128v448h128v-448h144l32-128h-176v-96c0-17.672 14.326-32 32-32h160v-128h-160z"></path>
</symbol>
<symbol id="icon-twitter2" viewBox="0 0 1024 1024">
	<title>twitter2</title>
	<path class="path1" d="M1024 194.418c-37.676 16.708-78.164 28.002-120.66 33.080 43.372-26 76.686-67.17 92.372-116.23-40.596 24.078-85.556 41.56-133.41 50.98-38.32-40.83-92.922-66.34-153.346-66.34-116.022 0-210.088 94.058-210.088 210.078 0 16.466 1.858 32.5 5.44 47.878-174.6-8.764-329.402-92.4-433.018-219.506-18.084 31.028-28.446 67.116-28.446 105.618 0 72.888 37.088 137.192 93.46 174.866-34.438-1.092-66.832-10.542-95.154-26.278-0.020 0.876-0.020 1.756-0.020 2.642 0 101.788 72.418 186.696 168.522 206-17.626 4.8-36.188 7.372-55.348 7.372-13.538 0-26.698-1.32-39.528-3.772 26.736 83.46 104.32 144.206 196.252 145.896-71.9 56.35-162.486 89.934-260.916 89.934-16.958 0-33.68-0.994-50.116-2.94 92.972 59.61 203.402 94.394 322.042 94.394 386.422 0 597.736-320.124 597.736-597.744 0-9.108-0.206-18.168-0.61-27.18 41.056-29.62 76.672-66.62 104.836-108.748z"></path>
</symbol>
<symbol id="icon-github4" viewBox="0 0 1024 1024">
	<title>github4</title>
	<path class="path1" d="M512 0c-282.77 0-512 229.23-512 512s229.23 512 512 512 512-229.23 512-512-229.23-512-512-512zM816.056 816.056c-39.518 39.516-85.512 70.532-136.708 92.186-13.006 5.5-26.214 10.328-39.6 14.492v-76.734c0-40.334-13.834-70-41.5-89 17.334-1.666 33.25-4 47.75-7s29.834-7.334 46-13 30.666-12.416 43.5-20.25 25.166-18 37-30.5 21.75-26.666 29.75-42.5 14.334-34.834 19-57 7-46.584 7-73.25c0-51.666-16.834-95.666-50.5-132 15.334-40 13.666-83.5-5-130.5l-12.5-1.5c-8.666-1-24.25 2.666-46.75 11s-47.75 22-75.75 41c-39.666-11-80.834-16.5-123.5-16.5-43 0-84 5.5-123 16.5-17.666-12-34.416-21.916-50.25-29.75s-28.5-13.166-38-16-18.334-4.584-26.5-5.25-13.416-0.834-15.75-0.5-4 0.666-5 1c-18.666 47.334-20.334 90.834-5 130.5-33.666 36.334-50.5 80.334-50.5 132 0 26.666 2.334 51.084 7 73.25s11 41.166 19 57 17.916 30 29.75 42.5 24.166 22.666 37 30.5 27.334 14.584 43.5 20.25 31.5 10 46 13 30.416 5.334 47.75 7c-27.334 18.666-41 48.334-41 89v78.23c-15.098-4.494-29.98-9.804-44.6-15.988-51.194-21.654-97.188-52.67-136.706-92.186-39.516-39.518-70.534-85.512-92.186-136.708-22.398-52.958-33.756-109.262-33.756-167.348s11.358-114.39 33.758-167.35c21.654-51.194 52.67-97.188 92.186-136.706s85.512-70.534 136.706-92.186c52.96-22.4 109.264-33.758 167.35-33.758s114.39 11.358 167.35 33.758c51.196 21.654 97.19 52.67 136.708 92.186 39.516 39.516 70.532 85.512 92.186 136.706 22.398 52.96 33.756 109.264 33.756 167.35s-11.358 114.39-33.758 167.35c-21.654 51.194-52.67 97.19-92.186 136.706z"></path>
</symbol>
<symbol id="icon-html52" viewBox="0 0 1024 1024">
	<title>html52</title>
	<path class="path1" d="M60.538 0l82.144 921.63 368.756 102.37 369.724-102.524 82.3-921.476h-902.924zM810.762 862.824l-297.226 82.376v0.466l-0.776-0.234-0.782 0.234v-0.466l-297.222-82.376-70.242-787.486h736.496l-70.248 787.486zM650.754 530.204l-13.070 146.552-126.21 34.070-125.862-33.916-8.050-90.234h-113.49l15.83 177.512 232.076 64.176 231.342-64.176 31.040-347.012h-411.966l-10.302-115.748h432.534l10.112-113.026h-566.218l30.498 341.802z"></path>
</symbol>
<symbol id="icon-css3" viewBox="0 0 1024 1024">
	<title>css3</title>
	<path class="path1" d="M152.388 48.522l-34.36 171.926h699.748l-21.884 111.054h-700.188l-33.892 171.898h699.684l-39.018 196.064-282.012 93.422-244.4-93.422 16.728-85.042h-171.898l-40.896 206.352 404.226 154.704 466.006-154.704 153.768-772.252z"></path>
</symbol>
</defs>
</svg>
